<?xml version="1.0" encoding="utf-8"?>
<svg version="1.1" id="Layer_1"
xmlns="http://www.w3.org/2000/svg"
xmlns:xlink="http://www.w3.org/1999/xlink"
xmlns:author="http://www.sothink.com"
width="58px" height="39px"
xml:space="preserve">
<g id="1" transform="matrix(1, 0, 0, 1, 28.8, 38.5)">
<path style="fill:none;stroke-width:3;stroke-linecap:round;stroke-linejoin:round;stroke-miterlimit:3;stroke:#000000;stroke-opacity:0.8" d="M-26.1,-14.7L-27.1 -15.4Q-27.45 -15.75 -27.2 -17.35L-27.05 -18.35L-26.35 -21.7L-26.1 -22.45L-26.05 -22.4L-25.95 -22.55L-26.2 -23L-25.9 -22.95Q-23.95 -29.65 -18 -33.8Q-16.2 -35.1 -14 -36.1L-13.4 -36.3L-12.8 -36.45L-12.45 -36.45L-10.15 -37L-7.45 -36.65L-7.3 -36.6L-7.1 -36.5L-3.2 -35.1Q-2.9 -35.5 -0.65 -35.75L0.55 -35.65L0.8 -35.3L0.95 -35.2L1.15 -34.9L1.15 -34.8L1.25 -34.8L1.3 -34.8L1.7 -34.4L1.85 -34.35L2.75 -34.05L2.85 -34.1L3.8 -33.7L4.7 -33.5L5.8 -33L6.25 -33.1L6.6 -33.05Q7.05 -33.05 7.15 -32.75L7.65 -32.45L7.7 -32.45L8.45 -31.95L8.5 -31.9L8.7 -31.45L9.05 -31L9.05 -30.95L9.2 -30.45L8.95 -30.05L9.65 -30.05L10.05 -29.9L10.4 -29.9Q11.6 -29.85 14.3 -28.85L14.7 -28.65L14.8 -28.6L16.85 -27.8Q18.8 -27 19.3 -26.6L19.85 -26.3L20.2 -25.9L20.55 -25.6L20.55 -25.55L20.85 -25.15L20.95 -25.1L21.15 -25L22.1 -23.7L22.4 -23.4Q24.1 -21.6 25.35 -18.3L26.3 -15.4L26.8 -13.7L26.85 -13.7L26.9 -13.4L26.95 -13.15L27.35 -10.4L27.35 -9.65Q27.15 -8.5 26.1 -8.2L25 -7.55" />
<path style="fill:#BDD6DE;fill-opacity:1" d="M15,-21.55L14.65 -21.35L14.6 -21.3L14.5 -21.1L14.7 -21.05L14.7 -20.95L14.65 -20.75L14.55 -20.7L14.5 -20.7L14.55 -20.55L14.55 -20.5L13.7 -19.3Q12.6 -18.05 11.8 -16.3L11.1 -14.5L10.6 -13.75L10.15 -13.7Q9.4 -13.5 9.4 -12.85L9.55 -12.3L10.05 -12.15L10.25 -12.2L10.05 -11.65L9.05 -8.75Q8.6 -7.75 8.45 -6.75L8.3 -6.7L8.3 -6.6L8.25 -6.4Q7.9 -5.9 7.45 -4.4L7.35 -4Q6.7 -1.8 6.75 -0.7L6.9 -0.45L6.9 -0.15Q7.35 -0.6 6.95 0L6.85 0Q6.55 0 6.75 -0.05L4.45 -0.95Q3.6 -1.3 2.55 -1.9L1.4 -2.6L1.4 -2.65L1.3 -2.7L1.3 -2.75L1.25 -2.75L1.2 -2.8L1.15 -2.8L1.15 -3.2L1.35 -3.65L1.4 -3.45L1.55 -3.45L1.7 -3.95L1.65 -3.45L1.65 -3.4Q2 -2.95 3.75 -2.15Q5.45 -1.35 6.1 -1.25Q6.5 -1.35 6.7 -2.15L6.9 -3.45L7.05 -4.05L7.25 -4.65L7.6 -5.55L7.3 -5.95L7.4 -6.1L5.4 -7L3.85 -7.55L3.65 -7.5L3.65 -7.35L3.6 -7.35Q3.4 -7.35 3.3 -6.5L3.2 -5.5L3.2 -5.4Q3.05 -5.1 2.55 -5.3L2.25 -5.4L2.05 -5.75L1.7 -4.7L2 -5.9L2.5 -8.7L2.5 -8.8L2.45 -8.95L2.2 -8.8Q1.6 -9.1 0.95 -9.45Q0.9 -9.35 0.75 -9.35Q-0.05 -9.3 -1.6 -10.15Q-3.1 -11 -3.15 -11.35L-3.1 -11.45L-3.5 -11.6L-4.3 -11.95L-3.8 -12.1L-3.75 -12.1L-1.75 -11.5L-1.35 -11.35L-0.65 -11.05Q2.35 -9.8 2.9 -9.2L2.9 -9.15Q7.45 -6.8 7.75 -6.85L8 -7L8 -7.15L8 -7.2L8.35 -7.45L7.8 -7.75L9.15 -11.8L8.85 -12.1L8.85 -12.55Q8.8 -13.65 9.85 -14.5L10.45 -14.9Q12.2 -18.7 13.85 -20.9Q12.55 -21.15 10.05 -22.35L10 -22.35L9.85 -22.45L9.75 -22.5L9.4 -22.6L9 -22.8L8.95 -22.8Q8.45 -23.05 8.05 -23.25L7.6 -23.45L7.55 -23.45L7.45 -23.45L6.8 -23.7Q6.55 -23.8 6.3 -24.05L5.75 -24.75L5.75 -24.8Q5.75 -25.1 6.3 -25.2L7.9 -24.95L9.9 -23.9L12.1 -23Q12.9 -22.55 13.7 -22.15L13.9 -22.1L14.65 -22.9L15.15 -23.1L16.45 -24.4Q16.85 -24.5 17.45 -25.25L18.5 -25.75L18.8 -25.6Q19.25 -25.6 19.35 -26L19.6 -26L20.2 -25.9L20.55 -25.6L20.55 -25.55L20.85 -25.15L20.85 -25.1Q20.25 -25.45 18.1 -24.4Q15.9 -23.4 15.35 -21.65L15 -21.55M0.4,-26.35L0.25 -26.4L0.35 -26.85Q0.3 -27.25 -1.05 -27.6Q-2.5 -28 -2.45 -27.4L-2.15 -27.3L-2.5 -27.2L-2.75 -27.3L-2.85 -27.35L-2.5 -27.65Q0.75 -30.95 4.4 -32.5L4.1 -32.1Q4.15 -31.85 4.45 -31.9L4.65 -32.05L4.95 -31.75L6.7 -31.8L7.55 -31.55L6.6 -31L3.4 -28.85Q1.45 -27.6 0.7 -26.2L0.4 -26.35M-9.6,-29.75L-9.65 -29.75L-9.85 -30L-9.8 -30.2L-9.5 -30.7L-9.05 -31.15L-9 -31.35L-7.05 -32.75L-5.5 -33.95L-4.1 -34.7L-3.95 -34.75L-3.85 -34.75L-3.2 -35.05L-3.25 -34.95Q-3.25 -34.65 -2.2 -34.7L-2 -34.7L-2.5 -34.25L-2.5 -33.85L-2.15 -33.85L-3.2 -33.15Q-6.45 -30.9 -7.5 -29L-7.65 -28.9L-7.7 -28.85L-8.1 -28.35L-7.8 -28.85L-7.6 -29.15L-7.45 -29.15L-7.2 -29.6Q-7.2 -29.8 -8.4 -30.05Q-9.55 -30.25 -9.65 -30.05L-9.65 -29.9L-9.6 -29.75M2.45,-29.25Q3.85 -30.45 3.85 -30.75L1.85 -30.7Q-0.15 -29.6 -0.1 -28.45L-0.1 -28.25Q0 -28.05 0.45 -28.05Q1.05 -28.1 2.45 -29.25M8.05,-23.75L7.9 -23.85L7.9 -23.8L8.05 -23.75M6.3,-9.7L5.7 -9.1Q5.55 -8.9 5 -10.6Q5.15 -11.1 5.45 -11.45L5.4 -11.5L5.3 -12.15Q5.15 -15.1 7.95 -18.4Q10.65 -21.65 10.8 -19.05Q8.95 -12.45 7.05 -11.3L7.05 -11.1L7.05 -10.5L6.3 -9.7M0.5,-6.65Q0.15 -5.9 -0.7 -5.85L-3.35 -7.15Q-3.75 -7.45 -3.85 -8.15L-3.9 -8.45Q-3.95 -10.1 -3 -10.1L-2 -9.6Q0.7 -8.2 0.7 -7.55L0.5 -6.65M3.15,-3.5Q2.8 -3.45 2.65 -3.65L2.55 -3.9Q2.55 -4.45 3.3 -4.65Q4.05 -4.85 4.1 -4.3L3.75 -3.75L3.15 -3.5M4.2,-4.6L3.8 -5.75Q3.75 -7.45 4.95 -5.3L5.4 -4.5L6.2 -2.65Q6.2 -2.25 5.8 -2.2Q5.1 -2.2 4.4 -3.95L4.3 -4.35L4.2 -4.6M3.75,-2.7Q3.8 -3.1 4.3 -3.15Q4.8 -3.25 4.85 -2.8Q4.85 -2.5 4.3 -2.5L3.8 -2.5L3.75 -2.7M5.4,-5.15Q5.5 -5.35 6.1 -5.4Q6.8 -5.45 6.8 -5Q6.85 -4.6 6.45 -4.3L5.7 -4.25Q5.5 -4.3 5.45 -4.5L5.35 -4.8L5.4 -5.15M-11.4,-35.95L-11.2 -36L-10.8 -36Q-10 -36 -9.5 -35.55Q-9.15 -35.25 -9.15 -34.9Q-9.15 -34.5 -9.75 -34.05Q-10.5 -33.55 -11.4 -33.55Q-12 -33.55 -12.65 -33.9L-13.15 -34.25Q-13.85 -33.7 -14.6 -33.55L-14.25 -33.1Q-14.25 -32.6 -14.6 -32.4L-15.05 -32.3L-15.6 -32.35Q-16.05 -32.5 -16.6 -32.8L-16.8 -32.95L-17.75 -33.7Q-17.8 -34.25 -16.75 -33.9Q-16.65 -34.35 -16.15 -34.25L-16.15 -34.35Q-16.2 -34.85 -14.25 -35.8Q-12.45 -36.75 -12.3 -35.65L-11.85 -35.85L-11.4 -35.95M-13.7,-35Q-13.55 -35.1 -13.55 -35.35Q-13.6 -35.9 -14.4 -35.6Q-15.3 -35.3 -15.3 -34.85L-15.05 -34.55L-14.65 -34.55L-13.7 -35M-18.55,-31.5Q-18.5 -30.15 -23.4 -26.35Q-23.65 -26.3 -23.75 -26.5L-23.85 -26.75Q-23.85 -27.35 -22.3 -29.4L-20.9 -30.8L-19.05 -31.9L-18.65 -31.75L-18.55 -31.5M-11.4,-27.25Q-13.45 -20.7 -15.15 -20.6Q-15.6 -20.55 -15.65 -20.95L-15.7 -21.3Q-15.75 -23.1 -13.6 -25.95Q-11.45 -28.8 -11.4 -27.25M-4.4,-34.25L-6 -33.15Q-7.6 -31.95 -7.6 -31.45Q-7.55 -31.05 -7.15 -31.1Q-6.75 -31.1 -5.35 -32.35L-4.05 -33.85Q-3.95 -34.25 -4.4 -34.25M-22.3,-20.25L-22.15 -20.05L-22 -19.75L-22 -19.65L-22.15 -18.9L-22.65 -17.1L-23 -16.15L-23 -16L-23.55 -13.75L-23.55 -13.5L-23.5 -13.4L-23.95 -13.55L-24.15 -13.55L-24.3 -13.65L-24.4 -13.75L-25.7 -14.5Q-26.85 -15.1 -27.1 -15.4Q-27.45 -15.75 -27.2 -17.35L-27.05 -18.35L-26.35 -21.7L-26.1 -22.45L-26.05 -22.4L-26.1 -22.4Q-26.05 -21.95 -24.7 -21.3L-23.7 -20.7L-22.65 -20.2Q-22.55 -20.2 -22.45 -20.35L-22.45 -20.4L-22.3 -20.25M-24.65,-18.8Q-24.85 -18.35 -25.15 -18.3Q-25.5 -18.3 -25.55 -18.75L-25.35 -19.3L-24.85 -19.8Q-24.55 -19.8 -24.5 -19.45L-24.65 -18.8M-23.55,-19.85Q-23.55 -20.2 -24.45 -20.6L-25.4 -20.75Q-25.75 -20.8 -25.8 -20.55L-26.05 -19.6L-26.25 -18.7L-26.6 -16.45Q-26.4 -15.65 -24.05 -14.8L-23.7 -14.85Q-23.15 -15.25 -23.15 -16.1L-23.15 -16.3L-23.35 -16.85L-23.95 -17.35L-23.65 -18.15L-23.35 -18.75L-23.15 -19.5L-23.55 -19.8L-23.55 -19.85M-26.25,-16.85L-26.3 -17L-25.95 -17.6L-25.05 -18.3L-23.75 -18.25L-24.75 -17.15Q-24.35 -17.1 -23.95 -16.55L-23.9 -16.4L-24.15 -15.85Q-25.2 -15.9 -25.2 -16.75L-25.25 -16.85L-25.8 -16.75L-26.25 -16.85M-15.4,-19L-15.65 -18.3L-15.9 -17.4Q-16.05 -16.25 -16.45 -15.75L-16.9 -15.65Q-17.55 -15.55 -17.6 -16.4Q-17.65 -18 -16.55 -19Q-15.45 -20 -15.4 -19M-12.15,-9.35L-12.2 -9.1L-12.6 -8.7L-13.1 -8.65L-15.55 -9.5Q-17.7 -10.4 -18.35 -11.5Q-19 -12.6 -17.8 -12.45L-17.2 -12.3Q-16 -11.95 -13.9 -10.75Q-12.3 -10.2 -12.15 -9.45L-12.15 -9.35M-11.2,-9.45L-10.45 -8.9L-10.4 -8.6Q-10.4 -8.1 -10.9 -8.1Q-11.45 -8.05 -11.7 -8.45L-11.95 -8.9L-11.85 -9.3L-11.2 -9.45" />
<path style="fill:#5B5393;fill-opacity:1" d="M22.65,-13.5Q21.8 -14.95 21.7 -16L21.4 -18.65L21 -20.3L20.65 -20.4L20.9 -20.7Q19.2 -21.2 17.6 -20.4Q16.15 -19.7 16.15 -19.05L16.25 -18.75L16.45 -18.7L16.4 -18.6Q15.8 -17.15 15.55 -15.85L14.95 -12.6L13.3 -9.3L12.85 -8.35L12.55 -8.35L12.75 -8.55Q12.75 -9 10.8 -8.25Q8.85 -7.55 8.55 -6.8L8.65 -6.8L8.55 -6.7L8.5 -6.7L8.4 -6.65L8.45 -6.75Q8.6 -7.75 9.05 -8.75L10.05 -11.65L10.25 -12.2L10.05 -12.15L9.55 -12.3L9.4 -12.85Q9.4 -13.5 10.15 -13.7L10.6 -13.75L11.1 -14.5L11.8 -16.3Q12.6 -18.05 13.7 -19.3L14.55 -20.5L14.55 -20.55L14.65 -20.75L14.7 -20.95L15.35 -21.65Q15.9 -23.4 18.1 -24.4Q20.25 -25.45 20.85 -25.1L20.85 -25.15L20.95 -25.1L21.15 -25L22.1 -23.7L22.4 -23.4Q24.1 -21.6 25.35 -18.3L26.3 -15.4L26.8 -13.7L26.05 -13.45L25.25 -13.2L24.7 -12.9L24.4 -12.8L24 -13.25Q22.8 -14.3 22.65 -13.5M19.4,-26.35L19.35 -26Q19.25 -25.6 18.8 -25.6L18.5 -25.75L18 -25.9L17.5 -25.3L17.45 -25.25Q16.85 -24.5 16.45 -24.4L16.25 -24.35Q15.9 -24.35 15.8 -24.7L15.7 -25.1Q15.65 -25.9 16.85 -26.45L15.45 -27.05L13.85 -27.65Q11.6 -28.4 11.55 -28.5L11.55 -28.6L10.8 -28.85L10.7 -28.9L8.1 -28.75Q8.9 -28.25 8.5 -28.25Q8.05 -28.2 7.9 -28.5L7.9 -28.6L7.1 -28Q5.25 -26.5 5.3 -25.8L5.3 -25.4L5.4 -25.3L4.8 -25.1L4.1 -24.9Q3.65 -24.85 3.4 -25.25L3.35 -25.65L2.75 -25.7L1.7 -24.6L1.6 -24.45L1.2 -23.5L0.9 -23.25L0.5 -23.1L-0.65 -21.55L-1.4 -20.6L-2.05 -19.75L-2.8 -18.8L-3.8 -17.1L-5.1 -13.8L-5.25 -13.6L-5.35 -13.55L-5.35 -13.4L-5.4 -13.15L-5.4 -13.1L-5.4 -13.05L-5.45 -12.95L-6 -11.35L-6.8 -9.1L-6.85 -8.35L-7 -7.35L-7 -7.3L-7.05 -7.15L-7.05 -7L-7.25 -6.65L-7.15 -6.7L-7.2 -6.65L-8.15 -5.95Q-9 -5.5 -8.7 -5.95L-8.8 -5.95L-8.85 -5.8L-8.8 -6.4L-8.55 -7.25L-8.15 -8.25L-8.2 -8.45L-8.2 -8.55L-7.1 -12.35L-6.55 -13.95L-4.8 -18.25L-4.3 -19.45L-4.1 -19.7L-4.4 -19.95L-4.45 -20.35Q-4.5 -20.85 -3.95 -20.8L-3.5 -20.65Q-1.7 -23.6 0.65 -25.95L0.9 -26.2Q3.15 -28.4 6 -30.05Q7.8 -31.4 8.55 -31.45L8.6 -31.45L8.7 -31.2L8.65 -31.45L8.7 -31.45L9.05 -31L9.05 -30.95L9.2 -30.45Q9.2 -30.4 8.25 -29.7L9.65 -29.95L10.05 -29.9L10.4 -29.9Q11.6 -29.85 14.3 -28.85L14.7 -28.65L14.8 -28.6L16.85 -27.8Q18.8 -27 19.3 -26.6L19.4 -26.35M2.95,-9.75L3.3 -9.7L4.6 -9.35L4.65 -9.2Q5.1 -8.5 6.15 -8.5L6.35 -8.5L6.4 -8.5Q7 -8.15 7.8 -7.75L8.35 -7.45L8 -7.2Q7.6 -7.2 6.55 -7.7L5.4 -8.35L3.85 -8.95Q3.45 -9.15 3.25 -9.3L3.15 -9.4L2.95 -9.75M-20.45,-11.4L-20.35 -14.35L-20.05 -15.8Q-19.6 -17.3 -18.6 -18.1L-20.5 -19L-20.5 -18.95L-20.8 -19.15L-20.75 -19.45Q-20.8 -20.05 -21.65 -19.85L-22 -19.75L-22.15 -20.05L-22.05 -20.1L-22.3 -20.25L-22.45 -20.4L-22.4 -20.65L-22.3 -20.65L-22.2 -20.95L-22.4 -20.8L-22.45 -20.8L-23.05 -20.9Q-23.75 -21.15 -24.85 -21.9L-25.45 -22.2L-25.55 -22.25L-25.95 -22.55L-26.2 -23L-25.9 -22.95Q-25.1 -22.95 -23.85 -22.25Q-22.95 -21.8 -22.45 -21.35L-22.2 -21L-21.35 -23.45Q-20.85 -25.05 -19.85 -26.25L-18.9 -27.5L-19.15 -27.85Q-19.15 -28.65 -18.3 -28.7L-18.1 -28.65L-17.8 -29.15L-16.05 -30.6Q-14.55 -31.8 -14.6 -32L-14.65 -32.15L-14.55 -32.25L-14.4 -32.25L-14.35 -32.25L-14.2 -32.3L-14.2 -32.35L-14.25 -32.6Q-14.25 -32.95 -13.7 -33L-13.65 -33L-13.45 -33.3L-13.45 -33.2L-13.4 -32.95Q-13.3 -32.7 -13 -32.7L-11.85 -32.75L-11.85 -32.6Q-11.85 -31.8 -11 -31.8Q-9.3 -31.8 -7.2 -34.45L-7.3 -35L-7.3 -35.35L-7.4 -35.65L-7.7 -36.15Q-8.2 -36.6 -9.25 -36.6L-9.65 -36.55Q-11.5 -36.9 -11.75 -36.15Q-11.9 -36.45 -12.45 -36.45L-10.15 -37L-7.45 -36.65L-7.3 -36.6L-7.15 -36.45L-7.1 -36.5L-3.2 -35.1Q-2.9 -35.5 -0.65 -35.75L0.55 -35.65L0.8 -35.3L0.8 -35.2L-0.3 -34.85Q-0.6 -34.5 -2.15 -33.85L-2.5 -33.85L-2.5 -34.25L-2 -34.7L-2.2 -34.7Q-3.25 -34.65 -3.25 -34.95L-3.2 -35.05L-3.85 -34.75L-3.95 -34.75L-4.1 -34.7L-5.5 -33.95L-7.05 -32.75L-9 -31.35L-9.05 -31.15L-9.5 -30.7L-9.8 -30.2L-10.05 -30.15L-10.2 -30.1L-10.55 -30.25L-10.5 -30.65L-10.6 -30.6L-10.6 -30.55Q-10.6 -30.15 -11.05 -30.15L-11.15 -30.15L-12.8 -30.95L-13.55 -31.4Q-14.4 -30.95 -17.2 -27.7Q-19.55 -24.6 -20.65 -20.85L-20.2 -20.6L-18.95 -19.85L-18.5 -19.25Q-18.45 -18.95 -18.55 -18.8L-18.6 -18.75L-18.6 -18.65L-18.5 -18.65L-18.35 -18.65L-18.2 -18.75L-18.15 -18.7L-18.1 -18.8L-17.9 -19.3L-17.8 -19.4L-18.1 -18.5L-18.2 -18L-18.55 -16.7L-19.15 -13.55L-19.3 -10.8L-19.35 -10.85L-19.7 -11L-19.85 -11.05L-19.85 -11.15L-19.9 -11.15L-19.9 -11.1L-19.9 -11.05L-20.45 -11.4M-4.15,-29.05L-4.15 -29L-4.25 -28.8Q-4.35 -28.7 -4.5 -28.7L-6.1 -28.4L-6.55 -28.45L-6.55 -28.75L-5.75 -29.05L-5.65 -29.05L-5.15 -29.2L-4.3 -29.2L-4.15 -29.05M-4.05,-27.55L-4.05 -27.6L-3.6 -29L-2.85 -29.75L-2.05 -30.15L-1.7 -30.35L0 -31.5L0.05 -31.5L0.2 -31.6Q1.85 -32.55 3 -32.55L3.25 -32.5L3.35 -32.25L2.5 -31.9Q1.05 -31.4 -1.2 -29.95L-2.3 -29.35L-3.1 -28.7L-3.8 -27.25L-4.05 -27.4L-4.05 -27.55M14.05,-15.85Q13.95 -17.5 12.8 -15.85L11.75 -14.1Q11.05 -13 10.7 -11.85L9.9 -9.6L9.75 -9.2L9.85 -8.4L10.4 -8.35L10.65 -8.4L11.4 -8.75L11.55 -8.95L12.1 -9.4L12.15 -9.5L12.3 -9.9L12.35 -10.1L12.45 -10.4L13.45 -14.25L14.05 -15.85M8.45,-4.55L8.65 -5.45Q8.9 -5.8 9.6 -6L10.75 -6.5Q11.65 -6.8 11.65 -6.35L11.3 -5.15L11.3 -5.1L11.6 -5.25L11.95 -4.95L11.7 -4L11.7 -3.9L11.5 -2.8Q11.3 -2.25 10.05 -1.75Q8.9 -1.25 8.25 -1.2Q7.95 -1.2 7.95 -1.3L7.75 -1.25L8.05 -3.05L8.25 -3.9L8.45 -4.55M8.9,-3.85Q8.2 -3 8.25 -2.6Q8.25 -2.25 8.55 -2.25Q9.15 -2.3 10.2 -3.85L11.05 -5.35Q11 -6.4 9.65 -4.8L8.9 -3.85M9.75,-2.05L10.6 -2.6L11.15 -3.2Q11.15 -3.5 10.7 -3.5Q10.15 -3.45 9.75 -3L9.35 -2.4L9.35 -2.25Q9.45 -2.05 9.75 -2.05M26.55,-9.9Q26.55 -10.15 25.65 -10.4Q24.7 -10.75 24.75 -10.15L25.15 -9.8Q25.65 -9.5 26.15 -9.55Q26.35 -9.55 26.5 -9.7L26.55 -9.9M24.55,-10.6L24.55 -10.85Q24.5 -11.05 26.15 -11.7L26.6 -11.65L26.8 -10.65L26.7 -9.4L26.6 -9.2L25.4 -8.35Q24.45 -7.8 24.3 -7.8Q24 -7.75 23.9 -8.1L23.85 -8.25L23.85 -8.45L23.95 -9.3L24.35 -9.75Q24.75 -10 24.55 -10.5L24.55 -10.6M25.95,-9.2L25.5 -9.55Q24.6 -9.5 24.6 -9L24.75 -8.7L25.3 -8.7L25.7 -9L25.9 -9.1L25.95 -9.2M-9.25,-24.8L-9 -24.75L-8.8 -24.7L-8.7 -24.55L-8.7 -24.5L-8.65 -24.5L-7.6 -24.35L-7.35 -24.2L-7.55 -23.85L-8.2 -23.8Q-8 -23.4 -7.9 -22.25L-7.9 -22.05L-7.8 -21.75Q-7.75 -21.35 -8.15 -21.35L-8.2 -21.35L-8.45 -21.4L-8.55 -21.8L-8.55 -21.95L-8.75 -22.55L-8.75 -22.8L-8.6 -23.3L-8.55 -23.35L-8.45 -23.8L-8.55 -23.8L-8.85 -23.95L-8.9 -23.9L-9.15 -23.9L-9.4 -23.95L-9.65 -24.1L-10.15 -24.45L-10.15 -24.55L-9.85 -24.55L-9.25 -24.8M-8.25,-24.9L-8.25 -25.15L-8.1 -25.7L-7.55 -26.5L-7.45 -26.6L-5.95 -27.7L-5.85 -27.5Q-6.75 -25.4 -7.65 -24.9L-7.8 -24.75L-8.1 -24.75L-8.25 -24.9M-9.4,-20.05L-9.4 -20Q-9.45 -19.7 -10.05 -19.45L-10.85 -16.95L-11.6 -15.1L-11.25 -14.55L-11.25 -13.3Q-11.4 -13.15 -11.55 -13.15L-11.75 -13.2Q-12 -13.3 -12.05 -13.8L-12.05 -14.1L-12.1 -14.55L-12.35 -14.55L-12.4 -14.55L-12.4 -14.85L-12.45 -14.95L-11.4 -17.55L-10.95 -18.8L-10.55 -19.4L-10.7 -19.8L-10.65 -19.95L-10.05 -20.3L-9.95 -20.3L-9.75 -20.3Q-9.4 -20.4 -9.4 -20.05M-13.8,-13.95L-13.25 -14.15Q-12.95 -14.25 -12.95 -13.95L-14.15 -12.55Q-14.6 -12.55 -14.6 -12.9L-14.45 -13.25L-13.8 -13.95M-9.6,-22.75L-9.75 -21.45L-9.8 -21.25L-9.75 -21.2L-10.4 -21.05L-10.85 -20.8L-11.2 -21.6L-11 -21.65L-10.95 -21.7L-10.95 -21.75L-10.6 -22.15L-10.3 -22.2L-10.1 -22.35L-10.1 -22.45L-9.75 -22.6L-9.6 -22.8L-9.6 -22.75M-19.4,-10.95L-19.4 -10.9L-19.35 -10.9L-19.4 -10.95" />
<path style="fill:#7290A8;fill-opacity:1" d="M-7,-7.15L-7 -7.3L-7 -7.35L-6.85 -8.35L-6.8 -9.1L-6 -11.35L-5.45 -12.95L-5.35 -12.95L-5.25 -12.95L-4.7 -12.5L-4.15 -12.3L-3.8 -12.1L-4.3 -11.95L-3.5 -11.6L-3.45 -11.45Q-3.4 -10.7 -3.95 -10.7L-4.3 -10.7L-4.25 -11.9L-4.85 -10.8L-5.3 -8.3L-5.3 -8.2Q-5.45 -7.05 -5.75 -6.75L-5.65 -6.55L-5.75 -6.2L-6 -6.1Q-6.4 -6.1 -6.75 -6.5L-6.9 -6.7L-7.05 -6.85L-7.05 -7L-7.05 -7.15L-7 -7.15M1.35,-3.65L1.15 -3.2L1 -3.05Q0.8 -3.05 0.75 -3.3L0.75 -3.55L1.45 -6.15L1.45 -6.25L1.75 -7.85L1.85 -8.2L2.2 -8.8L2.45 -8.95L2.5 -8.8L2.5 -8.7L2 -5.9L1.7 -4.7L1.35 -3.9L1.35 -3.65M7.15,-5.9L7.3 -5.95L7.6 -5.55L7.25 -4.65L7.05 -4.05L6.9 -3.45L6.7 -2.15Q6.5 -1.35 6.1 -1.25Q5.45 -1.35 3.75 -2.15Q2 -2.95 1.65 -3.4L1.65 -3.45L1.7 -3.95L2.25 -5.4L2.55 -5.3Q3.05 -5.1 3.2 -5.4L3.2 -5.5L3.3 -6.5Q3.4 -7.35 3.6 -7.35L3.65 -7.35Q6.5 -5.85 7.15 -5.9M19.6,-7.65L19.75 -7.35L22.65 -8.35L22.6 -7.65L22.6 -7.5L22.6 -7.15Q22.65 -6.85 22.9 -6.85L22.95 -6.85L22.8 -6.8L21.2 -5.9L21.2 -5.85L21 -5.8Q20.3 -5.8 17.45 -4.7L13.5 -3L12.1 -2.4Q12.4 -2.65 12.65 -4.05L12.8 -4.95Q13.85 -5.3 18.65 -7.4L19.75 -7.85L19.6 -7.65M-3.35,-26.7L-4.35 -27.2L-4.05 -27.55L-4.05 -27.4L-3.8 -27.25L-3.1 -28.7L-2.3 -29.35L-1.2 -29.95Q1.05 -31.4 2.5 -31.9L3.35 -32.25L3.25 -32.5L4.05 -32.6Q4.6 -32.7 4.55 -33Q4.55 -33.25 3.8 -33.5L3.05 -33.65L1 -34.45L0.9 -34.4L0.8 -34.5L0.9 -34.6L0.95 -34.6L0.95 -34.65L1 -34.8L1.15 -34.8L1.25 -34.8L1.3 -34.8L1.7 -34.4L1.85 -34.35L2.75 -34.05L2.85 -34.1L3.8 -33.7L4.7 -33.5L5.8 -33L6.25 -33.1L6.6 -33.05Q7.05 -33.05 7.15 -32.75L7.65 -32.45L8.2 -31.95L8.2 -31.8L7.85 -31.55L7.55 -31.55L6.7 -31.8L4.95 -31.75L4.65 -32.05L4.45 -31.9Q4.15 -31.85 4.1 -32.1L4.4 -32.5Q0.75 -30.95 -2.5 -27.65L-2.85 -27.35L-2.75 -27.3L-3.35 -26.7M-4.4,-28.3L-4.65 -27.5L-4.6 -27.35L-4.6 -27.3L-5.4 -27.75Q-5.5 -28.75 -6.35 -28.2L-7.65 -28.75L-7.6 -28.85L-7.55 -28.9L-7.3 -29.15L-7.05 -29.45Q-4 -32.2 -0.2 -34.05L-0.95 -33.35L-1.65 -32.25L-2.7 -31.2L-3.5 -30.4L-3.45 -30.2L-3.65 -30L-3.75 -30.05L-4.95 -29.85L-5.95 -29.6L-6.05 -29.6Q-6.95 -29.4 -6.95 -29L-6.9 -28.75L-6.55 -28.75L-6.55 -28.45L-6.1 -28.4L-4.5 -28.7Q-4.35 -28.7 -4.25 -28.8L-4.4 -28.3M13.45,-14.25L12.45 -10.4L12.35 -10.1L12.3 -9.9L12.15 -9.5L12.1 -9.4L11.55 -8.95L11.4 -8.75L10.65 -8.4L10.4 -8.35L9.85 -8.4L9.75 -9.2L9.9 -9.6L10.7 -11.85Q11.05 -13 11.75 -14.1L12.8 -15.85Q13.95 -17.5 14.05 -15.85L13.45 -14.25M3.75,-3.75L4.1 -4.3Q4.05 -4.85 3.3 -4.65Q2.55 -4.45 2.55 -3.9L2.65 -3.65Q2.8 -3.45 3.15 -3.5L3.75 -3.75M4.3,-4.35L4.4 -3.95Q5.1 -2.2 5.8 -2.2Q6.2 -2.25 6.2 -2.65L5.4 -4.5L4.95 -5.3Q3.75 -7.45 3.8 -5.75L4.2 -4.6L4.3 -4.35M3.8,-2.5L4.3 -2.5Q4.85 -2.5 4.85 -2.8Q4.8 -3.25 4.3 -3.15Q3.8 -3.1 3.75 -2.7L3.8 -2.5M5.35,-4.8L5.45 -4.5Q5.5 -4.3 5.7 -4.25L6.45 -4.3Q6.85 -4.6 6.8 -5Q6.8 -5.45 6.1 -5.4Q5.5 -5.35 5.4 -5.15L5.35 -4.8M-22.5,-17.45L-22 -18.8L-21.95 -18.9L-21.8 -18.85L-21.75 -18.7L-21.75 -18.65L-21.7 -18.7L-21.6 -18.8L-21.65 -18.65L-22.05 -17.05L-22.15 -16.55L-22.2 -16.4L-22.25 -16.15L-22.4 -15.65L-22.45 -15.4Q-22.95 -13.4 -23.15 -13.3L-22.8 -13.1L-21.25 -12.05L-20.65 -11.6L-20.6 -11.55L-20.65 -11.55L-20.45 -11.4L-24.15 -13.55L-23.95 -13.55L-23.5 -13.4L-23.55 -13.5L-23.55 -13.75L-23 -16L-23 -16.15L-22.65 -17.1L-22.5 -17.45M-24.5,-19.45Q-24.55 -19.8 -24.85 -19.8L-25.35 -19.3L-25.55 -18.75Q-25.5 -18.3 -25.15 -18.3Q-24.85 -18.35 -24.65 -18.8L-24.5 -19.45M-23.65,-19.8L-23.55 -19.8L-23.15 -19.5L-23.35 -18.75L-23.65 -18.15L-23.95 -17.35L-23.35 -16.85L-23.15 -16.3L-23.15 -16.1Q-23.15 -15.25 -23.7 -14.85L-24.05 -14.8Q-26.4 -15.65 -26.6 -16.45L-26.25 -18.7L-26.05 -19.6L-25.8 -20.55Q-25.75 -20.8 -25.4 -20.75L-23.65 -19.8M-25.8,-16.75L-25.25 -16.85L-25.2 -16.75Q-25.2 -15.9 -24.15 -15.85L-23.9 -16.4L-23.95 -16.55Q-24.35 -17.1 -24.75 -17.15L-23.75 -18.25L-25.05 -18.3L-25.95 -17.6L-26.3 -17L-26.25 -16.85L-25.8 -16.75" />
<path style="fill:#FAFCEA;fill-opacity:1" d="M7.85,-31.55L8.2 -31.8L8.5 -31.9L8.65 -31.45L8.7 -31.2L8.6 -31.45L8.55 -31.45Q7.8 -31.4 6 -30.05Q3.15 -28.4 0.9 -26.2L0.7 -26.2Q1.45 -27.6 3.4 -28.85L6.6 -31L7.55 -31.55L7.85 -31.55M1.15,-34.9L1.15 -34.8L1 -34.8L0.95 -34.65L0.95 -34.6L0.9 -34.6L0.8 -34.5L0.55 -34.6L-0.2 -34.05Q-4 -32.2 -7.05 -29.45L-7.3 -29.15L-7.5 -29Q-6.45 -30.9 -3.2 -33.15L-2.15 -33.85Q-0.6 -34.5 -0.3 -34.85L0.8 -35.2L0.95 -35.2L1.15 -34.9" />
<path style="fill:#B3BADB;fill-opacity:1" d="M19.3,-26.6L19.85 -26.3L20.2 -25.9L19.6 -26L19.35 -26L19.4 -26.35L19.3 -26.6M18.5,-25.75L17.45 -25.25L17.5 -25.3L18 -25.9L18.5 -25.75M8.2,-31.95L7.65 -32.45L7.7 -32.45L8.45 -31.95L8.5 -31.9L8.2 -31.8L8.2 -31.95M0.8,-35.3L0.95 -35.2L0.8 -35.2L0.8 -35.3M7.9,-23.8L7.9 -23.85L8.05 -23.75L7.9 -23.8M-8.55,-29L-8.6 -29.1L-8.35 -29L-8.4 -29L-8.5 -29L-8.55 -29M-1.4,-26.9L-1.55 -26.9L-1.9 -27.1L-1.9 -27.15L-1.4 -26.9" />
<path style="fill:#909EB8;fill-opacity:1" d="M7.45,-23.45L7.55 -23.45L7.6 -23.45L8.05 -23.25L7.45 -23.45M8.65,-31.45L8.5 -31.9L8.7 -31.45L8.65 -31.45M9.2,-30.45L8.95 -30.05L9.65 -30.05L10.05 -29.9L9.65 -29.95L8.25 -29.7Q9.2 -30.4 9.2 -30.45M-5.35,-13L-5.35 -12.95L-5.45 -12.95L-5.4 -13.05L-5.35 -13M23.55,-11.75L23.5 -11.7L23.4 -11.6L23.45 -11.5L23.2 -11.6L23.35 -11.9L23.55 -11.75M8.4,-6.6L8.4 -6.65L8.5 -6.7L8.4 -6.6M-17.1,-34.75L-17.2 -34.75L-17.1 -34.8L-17.1 -34.75M-17.9,-34.5L-17.9 -34.45L-17.95 -34.45L-17.9 -34.5M-22,-18.8L-22.5 -17.45L-22.65 -17.1L-22.15 -18.9L-22 -18.8M-22.05,-20.1L-22.15 -20.05L-22.3 -20.25L-22.05 -20.1M-25.55,-22.25L-25.45 -22.2L-26.05 -22.4L-25.95 -22.55L-25.55 -22.25M-21.75,-18.7L-21.7 -18.7L-21.75 -18.65L-21.75 -18.7M-9.6,-22.8L-9.55 -22.8L-9.6 -22.55L-9.65 -21.9L-9.75 -21.45L-9.6 -22.75L-9.6 -22.8" />
<path style="fill:#CBF2FF;fill-opacity:1" d="M2.95,-9.2L3.15 -9.4L3.25 -9.3Q3.45 -9.15 3.85 -8.95L5.4 -8.35L6.55 -7.7Q7.6 -7.2 8 -7.2L8 -7.15L8 -7L7.75 -6.85Q7.45 -6.8 2.9 -9.15L2.9 -9.2L2.95 -9.2M-0.1,-26.3L-1.4 -26.9L-1.9 -27.15L-2.15 -27.3L-2.45 -27.4Q-2.5 -28 -1.05 -27.6Q0.3 -27.25 0.35 -26.85L0.25 -26.4L-0.1 -26.3M0.4,-26.35L0.7 -26.2L0.9 -26.2L0.65 -25.95Q-1.7 -23.6 -3.5 -20.65L-3.95 -20.8Q-4.5 -20.85 -4.45 -20.35L-4.4 -19.95L-4.1 -19.7L-4.3 -19.45L-4.8 -18.25L-6.55 -13.95L-7.1 -12.35L-8.2 -8.55L-8.2 -8.45L-8.15 -8.25L-8.55 -7.25Q-8.8 -7.45 -8.85 -8.2L-8.8 -8.6L-6.85 -14.45L-4.8 -19.65L-5.05 -19.8L-5.05 -20.05Q-5.1 -20.95 -4.45 -21.55Q-4 -21.95 -3.8 -21.55L-3.75 -21.6L0.4 -26.35M0.9,-34.4L1 -34.45L3.05 -33.65L3.8 -33.5Q4.55 -33.25 4.55 -33Q4.6 -32.7 4.05 -32.6L3.25 -32.5L3 -32.55Q1.85 -32.55 0.2 -31.6L0.05 -31.5L-0.6 -31.2L-2.05 -30.15L-2.85 -29.75L-3.6 -29L-4.05 -27.6L-4.05 -27.55L-4.35 -27.2L-4.6 -27.3L-4.6 -27.35L-4.65 -27.5L-4.4 -28.3L-4.4 -28.25L-4.3 -28L-3.4 -29.5L-3.55 -29.65L-4 -29.25L-4.05 -29.25L-4.3 -29.2L-5.15 -29.2L-5.65 -29.05L-5.75 -29.05L-6.55 -28.75L-6.9 -28.75L-6.95 -29Q-6.95 -29.4 -6.05 -29.6L-5.95 -29.6L-6.1 -29.5L-6.05 -29.4L-5.55 -29.3Q-3.65 -29.4 -3.4 -29.9L-3.65 -30L-3.45 -30.2L-3.15 -30.1Q-1.75 -30.15 0.1 -34.05L0.05 -34.15L-0.2 -34.05L0.55 -34.6L0.8 -34.5L0.9 -34.4M0.45,-28.05Q0 -28.05 -0.1 -28.25L-0.1 -28.45Q-0.15 -29.6 1.85 -30.7L3.85 -30.75Q3.85 -30.45 2.45 -29.25Q1.05 -28.1 0.45 -28.05M9.45,-27.7Q12 -26.6 12.05 -25.65Q12.1 -25.05 10.75 -25Q8.9 -24.9 7.8 -25.65Q7 -26.25 6.95 -26.7Q6.85 -28.7 9.45 -27.7M12.85,-8.35L12.95 -8.2L12.95 -8.15L12.85 -8.05L12.8 -7.95L10.65 -7.1L10.3 -7.05L8.7 -6.45L8.6 -6.45L8.45 -6.6L8.55 -6.7L8.65 -6.8L8.8 -6.75Q11.9 -7.9 12.55 -8.35L12.85 -8.35M23.45,-11.4L23.45 -11.5L23.4 -11.6L23.5 -11.7L23.55 -11.75Q24.2 -11.8 25.15 -12.4L26.5 -13.1L26.85 -13.15L26.9 -13Q26.95 -12.6 25.55 -12.05L25.45 -12L25.4 -12L23.75 -11.3L23.55 -11.35L23.45 -11.4M20.65,-20.4Q20.35 -19.95 19.65 -19.9L18.3 -19.7L16.55 -18.7L16.45 -18.7L16.25 -18.75L16.15 -19.05Q16.15 -19.7 17.6 -20.4Q19.2 -21.2 20.9 -20.7L20.65 -20.4M-22.45,-21.35L-22.2 -22.5L-21.8 -23.8Q-21.5 -24.9 -20.15 -26.7L-19.7 -27.4L-19.8 -27.55L-19.8 -27.75L-19.55 -28.65Q-19.2 -29.2 -18.55 -29.25L-18.3 -29.2L-16.45 -31.1Q-14.95 -32.45 -14.65 -32.15L-14.6 -32Q-14.55 -31.8 -16.05 -30.6L-17.8 -29.15L-18.1 -28.65L-18.3 -28.7Q-19.15 -28.65 -19.15 -27.85L-18.9 -27.5L-19.85 -26.25Q-20.85 -25.05 -21.35 -23.45L-22.2 -21L-22.45 -21.35M-4.05,-33.85L-5.35 -32.35Q-6.75 -31.1 -7.15 -31.1Q-7.55 -31.05 -7.6 -31.45Q-7.6 -31.95 -6 -33.15L-4.4 -34.25Q-3.95 -34.25 -4.05 -33.85M-12.2,-22.7L-12.2 -22.75L-12.3 -22.6L-12.45 -22.4Q-14.9 -18 -15.6 -13.35Q-15.95 -13.65 -16 -14.5Q-16.05 -15.55 -14.1 -19.8L-11.7 -24.55L-10 -27.2Q-9.1 -28.6 -7.8 -28.85L-8.1 -28.35L-7.7 -28.85L-7.65 -28.9L-7.55 -28.9L-7.6 -28.85L-7.65 -28.75L-7.95 -28.45Q-10.3 -25.9 -11.85 -23.2L-12 -22.95L-12.2 -22.7M-8.1,-28.85L-8.3 -29L-8.35 -29L-8.6 -29.1L-8.55 -29Q-9.45 -29.35 -9.65 -29.9L-9.65 -30.05Q-9.55 -30.25 -8.4 -30.05Q-7.2 -29.8 -7.2 -29.6L-7.45 -29.15L-7.6 -29.15L-8.1 -28.85M-9.55,-25.5L-9.15 -25.15L-9.25 -24.85Q-9.35 -24.75 -9.45 -24.75Q-9.85 -24.7 -9.85 -25.2L-9.55 -25.5M-7.55,-26.5L-8.1 -25.7L-8.4 -25.2L-8.65 -25.45Q-8.7 -25.95 -7.75 -27Q-6.75 -28.05 -6.3 -27.65L-7.45 -26.6L-7.55 -26.5M-12.45,-14.65L-12.45 -14.6L-12.35 -14Q-12.35 -13.65 -12.65 -13.65L-12.75 -13.65L-12.95 -13.95L-12.95 -14.3L-12.95 -14.4L-13 -14.55Q-13.05 -14.45 -13.3 -14.3L-13.4 -14.25Q-13.9 -13.85 -14.25 -13.8L-14.45 -13.85L-14.45 -14.1L-13.15 -15.15L-13 -15.2L-12.8 -15.3L-12.7 -15.2L-12.75 -15.9L-11.35 -19.75L-11.25 -20.1L-11.15 -20.1L-11.1 -20.1L-10.9 -19.8Q-10.85 -19.45 -11.7 -17.45L-12.55 -15.2L-12.7 -15.2L-12.75 -15.1L-12.7 -15.05L-12.5 -14.75L-12.45 -14.65M-11.65,-10.7Q-12.25 -10.65 -13.7 -11.55Q-15.05 -12.25 -15.85 -12.95L-15.85 -13.1L-15.65 -13.05L-15.35 -12.95L-14.55 -12.65L-13.55 -12.1L-11.4 -10.95L-11.45 -10.8Q-11.5 -10.7 -11.65 -10.7M-6.45,-24.4L-6.55 -24.1L-6.8 -23.9L-7 -24.05L-7.05 -24.25L-6.8 -24.65Q-6.5 -24.7 -6.45 -24.4M-9.8,-21.25L-9.75 -21.45L-9.65 -21.9L-9.6 -22.55L-9.55 -22.8L-9.6 -22.8L-9.75 -22.6L-10.1 -22.45L-10.1 -22.35L-10.3 -22.2L-10.6 -22.15L-10.95 -21.75L-11.35 -21.55L-11.6 -21.8L-11.55 -22L-11.6 -22L-12.05 -22.55L-11.7 -22.85Q-11.35 -22.85 -11.35 -22.45L-11.3 -22.3L-10.5 -23.05Q-9.6 -23.8 -9.4 -23.25L-9.3 -23.35Q-9 -23.45 -9 -23L-9 -22.25Q-9.2 -20.95 -9.45 -20.95L-9.75 -21.05L-9.75 -21.2L-9.8 -21.25M-11.1,-20.8Q-11.05 -20.45 -11.25 -20.45Q-11.45 -20.45 -11.5 -20.6L-11.5 -20.75L-11.4 -21.15L-11.2 -21.35L-11.1 -20.8" />
<path style="fill:#FFFFFF;fill-opacity:1" d="M3.65,-7.35L3.65 -7.5L3.85 -7.55L5.4 -7L7.4 -6.1L7.3 -5.95L7.15 -5.9Q6.5 -5.85 3.65 -7.35M7.9,-3.95L7.7 -3.5L7 -0.45L6.9 -0.45L6.75 -0.7Q6.7 -1.8 7.35 -4L7.45 -4.4Q7.9 -5.9 8.25 -6.4L8.3 -6.6L8.3 -6.7L8.45 -6.75L8.4 -6.65L8.4 -6.6L8.5 -6.7L8.55 -6.7L8.45 -6.6L8.6 -6.45L8.7 -6.45L7.9 -3.95M-0.2,-34.05L0.05 -34.15L0.1 -34.05Q-1.75 -30.15 -3.15 -30.1L-3.45 -30.2L-3.5 -30.4L-2.7 -31.2L-1.65 -32.25L-0.95 -33.35L-0.2 -34.05M-3.65,-30L-3.4 -29.9Q-3.65 -29.4 -5.55 -29.3L-6.05 -29.4L-6.1 -29.5L-5.95 -29.6L-4.95 -29.85L-3.75 -30.05L-3.65 -30M-4.25,-28.8L-4.15 -29L-4.15 -29.05L-4 -29.25L-3.55 -29.65L-3.4 -29.5L-4.3 -28L-4.4 -28.25L-4.4 -28.3L-4.25 -28.8M-14.65,-34.55L-15.05 -34.55L-15.3 -34.85Q-15.3 -35.3 -14.4 -35.6Q-13.6 -35.9 -13.55 -35.35Q-13.55 -35.1 -13.7 -35L-14.65 -34.55" />
<path style="fill:#B86C23;fill-opacity:1" d="M-4.15,-29.05L-4.3 -29.2L-4.05 -29.25L-4 -29.25L-4.15 -29.05M0,-31.5L-1.7 -30.35L-2.05 -30.15L-0.6 -31.2L0.05 -31.5L0 -31.5" />
<path style="fill:#A4B7C6;fill-opacity:1" d="M4.8,-25.1L5.4 -25.3L5.3 -25.4L5.3 -25.8Q5.25 -26.5 7.1 -28L7.9 -28.6L7.9 -28.5Q8.05 -28.2 8.5 -28.25Q8.9 -28.25 8.1 -28.75L10.7 -28.9L10.8 -28.85L11.55 -28.6L11.55 -28.5Q11.6 -28.4 13.85 -27.65L15.45 -27.05L16.85 -26.45Q15.65 -25.9 15.7 -25.1L15.8 -24.7Q15.9 -24.35 16.25 -24.35L16.45 -24.4L15.15 -23.1L14.65 -22.9L13.9 -22.1L13.7 -22.15Q12.9 -22.55 12.1 -23L9.9 -23.9L7.9 -24.95L6.3 -25.2Q5.75 -25.1 5.75 -24.8L5.75 -24.75L6.3 -24.05Q6.55 -23.8 6.8 -23.7L6.45 -23.7L6.4 -23.7L6.3 -23.75L5.8 -24.05L4.8 -25.1M6.4,-8.5L6.55 -8.65L6.35 -8.5L6.15 -8.5Q5.1 -8.5 4.65 -9.2L4.6 -9.35L3.3 -9.7L3.45 -10.25L4.75 -14.3L5.15 -15.2L5.4 -15.85Q6.75 -18.8 9.1 -21.8L9.7 -22.45L9.95 -22.3L9.95 -22.35L10 -22.35L10.05 -22.35Q12.55 -21.15 13.85 -20.9Q12.2 -18.7 10.45 -14.9L9.85 -14.5Q8.8 -13.65 8.85 -12.55L8.85 -12.1L9.15 -11.8L7.8 -7.75Q7 -8.15 6.4 -8.5M-3.5,-11.6L-3.1 -11.45L-3.15 -11.35Q-3.1 -11 -1.6 -10.15Q-0.05 -9.3 0.75 -9.35Q0.9 -9.35 0.95 -9.45Q1.6 -9.1 2.2 -8.8L1.85 -8.2L1.75 -7.85L1.45 -6.25L1.45 -6.15L0.75 -3.55L0.75 -3.3Q0.8 -3.05 1 -3.05L1.15 -3.2L1.15 -2.8L1.1 -2.85L1 -2.85L0.6 -3.2L-0.1 -3.65L-1.45 -4.25L-2.15 -4.5L-4.9 -5.85L-4.95 -5.8L-5 -5.85L-5.75 -6.2L-5.65 -6.55L-5.75 -6.75Q-5.45 -7.05 -5.3 -8.2L-5.3 -8.3L-4.85 -10.8L-4.25 -11.9L-4.3 -10.7L-3.95 -10.7Q-3.4 -10.7 -3.45 -11.45L-3.5 -11.6M22.85,-9.6Q20.25 -8.3 19.75 -7.85L18.65 -7.4Q13.85 -5.3 12.8 -4.95L12.65 -4.05Q12.4 -2.65 12.1 -2.4L11.95 -2.3L11.9 -2.3L11.9 -2.25L10 -1.35L8.05 -0.55L7.4 -0.25L7.3 -0.2L7.2 -0.2L7.05 -0.1L6.95 0Q7.35 -0.6 6.9 -0.15L6.9 -0.45L7 -0.45L7.7 -3.5L7.9 -3.95L8.7 -6.45L10.3 -7.05L10.65 -7.1L12.8 -7.95L12.85 -8.05L12.95 -8.15L13.15 -7.8L12.85 -5.5L13.5 -5.75Q15 -6.5 18.65 -8.05L21.95 -9.65L23 -10.05L22.85 -9.6M26.95,-13.15L27.35 -10.4L27.35 -9.65Q27.15 -8.5 26.1 -8.2L24.5 -7.3L24.3 -7.35L23.25 -7L23.1 -6.8L22.95 -6.85L23.2 -7.7L23.25 -7.95L23.55 -9.85L23.8 -11.05L23.7 -11.15L23.65 -11.1L23.55 -11.35L23.75 -11.3L25.4 -12L25.45 -12L25.55 -12.05Q26.95 -12.6 26.9 -13L26.85 -13.15L26.95 -13.15M-11.45,-10.8L-11.15 -10.65L-11.15 -11Q-10.3 -17 -6.75 -22.35L-6.55 -22.7L-6.3 -23.05L-5.55 -24.1L-3.35 -26.7L-2.75 -27.3L-2.5 -27.2L-2.15 -27.3L-1.9 -27.15L-1.9 -27.1L-1.55 -26.9L-1.4 -26.9L-0.1 -26.3L0.25 -26.4L0.4 -26.35L-3.75 -21.6L-3.8 -21.55Q-4 -21.95 -4.45 -21.55Q-5.1 -20.95 -5.05 -20.05L-5.05 -19.8L-4.8 -19.65L-6.85 -14.45L-8.8 -8.6L-8.85 -8.2Q-8.8 -7.45 -8.55 -7.25L-8.8 -6.4L-8.85 -5.8L-18.75 -10.45L-18.95 -10.55L-19.3 -10.8L-19.15 -13.55L-18.55 -16.7L-18.2 -18L-18.1 -18.5L-17.8 -19.4L-17.8 -19.45L-17.35 -20.75L-16.05 -23.15L-15.2 -24.45L-12.5 -27.85L-10.6 -29.7L-11.15 -30.15L-11.05 -30.15Q-10.6 -30.15 -10.6 -30.55L-10.6 -30.6L-10.5 -30.65L-10.55 -30.25L-10.2 -30.1L-10.05 -30.15L-9.8 -30.2L-9.85 -30L-9.65 -29.75L-9.6 -29.75L-9.65 -29.9Q-9.45 -29.35 -8.55 -29L-8.5 -29L-8.4 -29L-8.35 -29L-8.3 -29L-8.1 -28.85L-7.6 -29.15L-7.8 -28.85Q-9.1 -28.6 -10 -27.2L-11.7 -24.55L-14.1 -19.8Q-16.05 -15.55 -16 -14.5Q-15.95 -13.65 -15.6 -13.35L-15.6 -13.3L-15.65 -13.05L-15.85 -13.1L-15.85 -12.95Q-15.05 -12.25 -13.7 -11.55Q-12.25 -10.65 -11.65 -10.7Q-11.5 -10.7 -11.45 -10.8M6.95,-26.7Q7 -26.25 7.8 -25.65Q8.9 -24.9 10.75 -25Q12.1 -25.05 12.05 -25.65Q12 -26.6 9.45 -27.7Q6.85 -28.7 6.95 -26.7M7.05,-10.5L7.05 -11.1L7.05 -11.3Q8.95 -12.45 10.8 -19.05Q10.65 -21.65 7.95 -18.4Q5.15 -15.1 5.3 -12.15L5.4 -11.5L5.45 -11.45Q5.15 -11.1 5 -10.6Q5.55 -8.9 5.7 -9.1L6.3 -9.7L7.05 -10.5M0.7,-7.55Q0.7 -8.2 -2 -9.6L-3 -10.1Q-3.95 -10.1 -3.9 -8.45L-3.85 -8.15Q-3.75 -7.45 -3.35 -7.15L-0.7 -5.85Q0.15 -5.9 0.5 -6.65L0.7 -7.55M8.25,-3.9L8.05 -3.05L7.75 -1.25L7.95 -1.3Q7.95 -1.2 8.25 -1.2Q8.9 -1.25 10.05 -1.75Q11.3 -2.25 11.5 -2.8L11.7 -3.9L11.7 -4L11.95 -4.95L11.6 -5.25L11.3 -5.1L11.3 -5.15L11.65 -6.35Q11.65 -6.8 10.75 -6.5L9.6 -6Q8.9 -5.8 8.65 -5.45L8.45 -4.55L8.25 -3.9M9.65,-4.8Q11 -6.4 11.05 -5.35L10.2 -3.85Q9.15 -2.3 8.55 -2.25Q8.25 -2.25 8.25 -2.6Q8.2 -3 8.9 -3.85L9.65 -4.8M9.35,-2.25L9.35 -2.4L9.75 -3Q10.15 -3.45 10.7 -3.5Q11.15 -3.5 11.15 -3.2L10.6 -2.6L9.75 -2.05Q9.45 -2.05 9.35 -2.25M26.5,-9.7Q26.35 -9.55 26.15 -9.55Q25.65 -9.5 25.15 -9.8L24.75 -10.15Q24.7 -10.75 25.65 -10.4Q26.55 -10.15 26.55 -9.9L26.5 -9.7M24.5,-10.4L24.55 -10.5Q24.75 -10 24.35 -9.75L23.95 -9.3L23.85 -8.45L23.85 -8.25L23.9 -8.1Q24 -7.75 24.3 -7.8Q24.45 -7.8 25.4 -8.35L26.6 -9.2L26.7 -9.4L26.8 -10.65L26.6 -11.65L26.15 -11.7Q24.5 -11.05 24.55 -10.85L24.55 -10.6L24.5 -10.4M25.9,-9.1L25.7 -9L25.3 -8.7L24.75 -8.7L24.6 -9Q24.6 -9.5 25.5 -9.55L25.95 -9.2L25.9 -9.1M-11.85,-35.85L-12.3 -35.65Q-12.45 -36.75 -14.25 -35.8Q-16.2 -34.85 -16.15 -34.35L-16.15 -34.25Q-16.65 -34.35 -16.75 -33.9Q-17.8 -34.25 -17.75 -33.7L-16.8 -32.95L-16.6 -32.8Q-16.05 -32.5 -15.6 -32.35L-15.05 -32.3L-14.6 -32.4Q-14.25 -32.6 -14.25 -33.1L-14.6 -33.55Q-13.85 -33.7 -13.15 -34.25L-12.65 -33.9Q-12 -33.55 -11.4 -33.55Q-10.5 -33.55 -9.75 -34.05Q-9.15 -34.5 -9.15 -34.9Q-9.15 -35.25 -9.5 -35.55Q-10 -36 -10.8 -36L-11.2 -36L-11.4 -35.95L-11.85 -35.85M-16.45,-31.1L-18.3 -29.2L-18.55 -29.25Q-19.2 -29.2 -19.55 -28.65L-19.8 -27.75L-19.8 -27.55L-19.7 -27.4L-20.15 -26.7Q-21.5 -24.9 -21.8 -23.8L-22.2 -22.5L-22.45 -21.35Q-22.95 -21.8 -23.85 -22.25Q-25.1 -22.95 -25.9 -22.95Q-23.95 -29.65 -18 -33.8Q-16.2 -35.1 -14 -36.1L-13.4 -36.3L-12.8 -36.45L-12.45 -36.45Q-11.9 -36.45 -11.75 -36.15Q-11.5 -36.9 -9.65 -36.55L-9.25 -36.6Q-8.2 -36.6 -7.7 -36.15L-7.4 -35.65L-7.3 -35.35L-7.3 -35L-7.2 -34.45Q-9.3 -31.8 -11 -31.8Q-11.85 -31.8 -11.85 -32.6L-11.85 -32.75L-13 -32.7Q-13.3 -32.7 -13.4 -32.95L-13.45 -33.2L-13.45 -33.3L-13.65 -33L-13.7 -33Q-14.25 -32.95 -14.25 -32.6L-14.2 -32.35L-14.2 -32.3L-14.35 -32.25L-14.4 -32.25L-14.55 -32.25L-14.65 -32.15Q-14.95 -32.45 -16.45 -31.1M-18.65,-31.75L-19.05 -31.9L-20.9 -30.8L-22.3 -29.4Q-23.85 -27.35 -23.85 -26.75L-23.75 -26.5Q-23.65 -26.3 -23.4 -26.35Q-18.5 -30.15 -18.55 -31.5L-18.65 -31.75M-13.6,-25.95Q-15.75 -23.1 -15.7 -21.3L-15.65 -20.95Q-15.6 -20.55 -15.15 -20.6Q-13.45 -20.7 -11.4 -27.25Q-11.45 -28.8 -13.6 -25.95M-8.8,-24.7L-8.85 -25.2Q-8.9 -26.05 -7.2 -27.6L-6.35 -28.2Q-5.5 -28.75 -5.4 -27.75L-5.4 -27.6Q-5.9 -25.75 -6.65 -24.9Q-6.2 -25 -6.15 -24.35Q-6.1 -23.6 -6.65 -23.6Q-7.15 -23.55 -7.3 -23.85L-7.3 -24.1L-7.2 -24.45L-7.6 -24.35L-8.65 -24.5L-8.7 -24.55L-8.8 -24.7M-12.45,-14.95L-12.4 -14.85L-12.5 -14.75L-12.7 -15.05L-12.75 -15.1L-12.7 -15.2L-12.55 -15.2L-11.7 -17.45Q-10.85 -19.45 -10.9 -19.8L-11.1 -20.1L-11.15 -20.1L-11.5 -20.2L-11.7 -21.15L-12.1 -20.9L-12.4 -21L-12.45 -21.35L-12.05 -22L-12.1 -22.1L-12.25 -22.55L-12.2 -22.7L-12 -22.95L-11.6 -23.1L-11.05 -22.9L-10.55 -23.3L-9.4 -23.95L-9.15 -23.9L-8.9 -23.9Q-8.65 -23.85 -8.6 -23.3L-8.75 -22.8L-8.75 -22.55L-8.8 -21.8L-8.55 -21.8L-8.45 -21.4L-8.2 -21.35Q-8.25 -20.65 -8.75 -20.6L-9 -20.6L-9.15 -20L-9.4 -20L-9.4 -20.05Q-9.4 -20.4 -9.75 -20.3L-9.75 -20.4L-9.95 -20.3L-10.05 -20.3L-10.65 -19.95L-10.7 -19.8L-11.4 -17.8L-12.5 -15.05L-12.45 -14.95M-9.85,-24.55L-10.05 -25Q-10.1 -25.65 -9.45 -25.7Q-8.95 -25.7 -8.9 -25.25L-9 -24.75L-9.25 -24.8L-9.85 -24.55M-9.85,-25.2Q-9.85 -24.7 -9.45 -24.75Q-9.35 -24.75 -9.25 -24.85L-9.15 -25.15L-9.55 -25.5L-9.85 -25.2M-8.35,-25.05L-8.35 -24.8L-8.1 -24.75L-7.8 -24.75L-7.65 -24.9Q-6.75 -25.4 -5.85 -27.5L-5.95 -27.7L-7.45 -26.6L-6.3 -27.65Q-6.75 -28.05 -7.75 -27Q-8.7 -25.95 -8.65 -25.45L-8.4 -25.2L-8.1 -25.7L-8.35 -25.05M-12.45,-14.6L-12.4 -14.55L-12.35 -14.55L-12.05 -14.1L-12.05 -13.8Q-12 -13.3 -11.75 -13.2L-11.75 -13Q-11.7 -12.4 -12.1 -12.35Q-12.55 -12.35 -12.7 -13.2L-12.75 -13.65L-12.65 -13.65Q-12.35 -13.65 -12.35 -14L-12.45 -14.6M-14.45,-13.25L-14.75 -13.1L-15 -13.2L-15.1 -13.55L-14.2 -14.5L-13.15 -15.15L-14.45 -14.1L-14.45 -13.85L-14.25 -13.8Q-13.9 -13.85 -13.4 -14.25L-13.3 -14.3Q-13.05 -14.45 -13 -14.55L-12.95 -14.4L-13.25 -14.15L-13.8 -13.95L-14.45 -13.25M-12.75,-15.9L-12.7 -15.2L-12.8 -15.3L-13 -15.2L-12.35 -17.6L-11.35 -19.75L-12.75 -15.9M-22.15,-18.9L-22 -19.65L-22 -19.75L-21.65 -19.85Q-20.8 -20.05 -20.75 -19.45L-20.8 -19.15L-20.5 -18.95L-20.5 -19L-18.6 -18.1Q-19.6 -17.3 -20.05 -15.8L-20.35 -14.35L-20.45 -11.4L-20.65 -11.55L-20.6 -11.55L-20.65 -11.6L-21.25 -12.05L-22.8 -13.1L-23.15 -13.3Q-22.95 -13.4 -22.45 -15.4L-22.4 -15.65L-22.25 -16.15L-22.2 -16.4L-22.15 -16.55L-22.05 -17.05L-21.65 -18.65L-21.6 -18.8L-21.7 -18.7L-21.75 -18.7L-21.8 -18.85L-21.95 -18.9L-22 -18.8L-22.15 -18.9M-6.8,-24.65L-7.05 -24.25L-7 -24.05L-6.8 -23.9L-6.55 -24.1L-6.45 -24.4Q-6.5 -24.7 -6.8 -24.65M-10.95,-21.7L-11 -21.65L-11.2 -21.6L-10.85 -20.8L-10.4 -21.05L-9.75 -21.2L-9.75 -21.05L-9.45 -20.95Q-9.2 -20.95 -9 -22.25L-9 -23Q-9 -23.45 -9.3 -23.35L-9.4 -23.25Q-9.6 -23.8 -10.5 -23.05L-11.3 -22.3L-11.35 -22.45Q-11.35 -22.85 -11.7 -22.85L-12.05 -22.55L-11.6 -22L-11.55 -22L-11.6 -21.8L-11.35 -21.55L-10.95 -21.75L-10.95 -21.7M-11.2,-21.35L-11.4 -21.15L-11.5 -20.75L-11.5 -20.6Q-11.45 -20.45 -11.25 -20.45Q-11.05 -20.45 -11.1 -20.8L-11.2 -21.35M-16.55,-19Q-17.65 -18 -17.6 -16.4Q-17.55 -15.55 -16.9 -15.65L-16.45 -15.75Q-16.05 -16.25 -15.9 -17.4L-15.65 -18.3L-15.4 -19Q-15.45 -20 -16.55 -19M-12.15,-9.45Q-12.3 -10.2 -13.9 -10.75Q-16 -11.95 -17.2 -12.3L-17.8 -12.45Q-19 -12.6 -18.35 -11.5Q-17.7 -10.4 -15.55 -9.5L-13.1 -8.65L-12.6 -8.7L-12.2 -9.1L-12.15 -9.35L-12.15 -9.45M-11.85,-9.3L-11.95 -8.9L-11.7 -8.45Q-11.45 -8.05 -10.9 -8.1Q-10.4 -8.1 -10.4 -8.6L-10.45 -8.9L-11.2 -9.45L-11.85 -9.3M-9.65,-7.15L-9.75 -7.15L-9.8 -7.05L-9.65 -7.15" />
<path style="fill:#514033;fill-opacity:1" d="M-5.35,-13.05L-5.4 -13.1L-5.4 -13.15L-5.35 -13.4L-5.35 -13.55L-5.25 -13.6L-5.1 -13.8L-3.8 -17.1L-2.8 -18.8L-2.05 -19.75L-1.4 -20.6L-0.65 -21.55L0.5 -23.1L0.9 -23.25L1.2 -23.5L1.6 -24.45L1.7 -24.6L2.75 -25.7L3.35 -25.65L3.4 -25.25Q3.65 -24.85 4.1 -24.9L4.8 -25.1L5.8 -24.05L5.8 -23.95L5.8 -23.9L6.3 -23.75L6.4 -23.7L6.45 -23.7L8.95 -22.8L9 -22.8L9.4 -22.6L9.7 -22.45L9.1 -21.8Q7.45 -22.35 3 -24.7Q1.55 -23.15 0.95 -21.75L5.2 -19.35L3.6 -19.9L3.6 -19.95L2.75 -20.5L1.75 -20.55L0.15 -21.15Q-1.55 -19.6 -2.95 -17.1L-1.95 -16.05Q-2.2 -16.1 -2.1 -15.95L-2.25 -15.9L-2.1 -15.9L-1.65 -15.45Q-0.55 -14.5 2.05 -13.2L3.1 -12.3L3.05 -12.3L0.8 -13.55L-0.1 -13.9L-3.1 -15.3Q-3.8 -14.35 -3.95 -13.5L3.45 -10.25L3.3 -9.7L2.95 -9.75L3.15 -9.4L2.95 -9.2L2.9 -9.2Q2.35 -9.8 -0.65 -11.05L-1.35 -11.35L-1.75 -11.5L-3.75 -12.1L-3.8 -12.1L-4.15 -12.3L-4.7 -12.5L-5.25 -12.95L-5.35 -12.95L-5.35 -13L-5.35 -13.05M-3.35,-26.7L-5.55 -24.1L-6.3 -23.05L-6.55 -22.7L-6.75 -22.35Q-10.3 -17 -11.15 -11L-11.15 -10.65L-11.45 -10.8L-11.4 -10.95L-13.55 -12.1L-14.55 -12.65L-15.35 -12.95L-15.65 -13.05L-15.6 -13.3L-15.6 -13.35Q-14.9 -18 -12.45 -22.4L-12.3 -22.6L-12.2 -22.75L-12.2 -22.7L-12.25 -22.55L-12.1 -22.1L-12.05 -22L-12.45 -21.35L-12.4 -21L-12.1 -20.9L-11.7 -21.15L-11.5 -20.2L-11.15 -20.1L-11.25 -20.1L-11.35 -19.75L-12.35 -17.6L-13 -15.2L-13.15 -15.15L-14.2 -14.5L-15.1 -13.55L-15 -13.2L-14.75 -13.1L-14.45 -13.25L-14.6 -12.9Q-14.6 -12.55 -14.15 -12.55L-12.95 -13.95L-12.75 -13.65L-12.7 -13.2Q-12.55 -12.35 -12.1 -12.35Q-11.7 -12.4 -11.75 -13L-11.75 -13.2L-11.55 -13.15Q-11.4 -13.15 -11.25 -13.3L-11.25 -14.55L-11.6 -15.1L-10.85 -16.95L-10.05 -19.45Q-9.45 -19.7 -9.4 -20L-9.15 -20L-9 -20.6L-8.75 -20.6Q-8.25 -20.65 -8.2 -21.35L-8.15 -21.35Q-7.75 -21.35 -7.8 -21.75L-7.9 -22.05L-7.9 -22.25Q-8 -23.4 -8.2 -23.8L-7.55 -23.85L-7.35 -24.2L-7.6 -24.35L-7.2 -24.45L-7.3 -24.1L-7.3 -23.85Q-7.15 -23.55 -6.65 -23.6Q-6.1 -23.6 -6.15 -24.35Q-6.2 -25 -6.65 -24.9Q-5.9 -25.75 -5.4 -27.6L-5.4 -27.75L-4.6 -27.3L-4.35 -27.2L-3.35 -26.7M19,-18.05Q17.5 -17.95 17.55 -17L17.6 -16.7Q17.75 -16.45 18.55 -16.5Q19.1 -16.55 19.45 -16.9L19.65 -17.5Q19.7 -18.1 19 -18.05M17.15,-12.7Q17.25 -12.45 17.95 -12.45Q19 -12.55 19.75 -13.2Q20.3 -13.8 20.3 -14.15Q20.25 -14.95 18.65 -14.35Q17.1 -13.75 17.15 -12.95L17.15 -12.7M17.15,-17.15Q17.7 -18.95 18.95 -19Q20.2 -18.95 20.35 -17.55L20.45 -16.45L17.25 -15.25L20.55 -15.9L20.65 -14.6L20.95 -13.4L21.1 -13.05L17.7 -11.15L21.8 -12.1L22.45 -11.55L22.95 -10.8L14.1 -6.85L15.4 -8.85L18 -9.9L16.25 -10.45Q16.7 -11.55 16.7 -12.8Q16.65 -15.35 17.15 -17.15M4.8,-15.35L4.75 -15.35Q4.1 -15.3 1.5 -16.5L1.45 -16.55L1.45 -16.6L0.9 -16.8L0.55 -17L0.55 -17.1L0.95 -17.1L5.4 -15.85L5.15 -15.2L4.8 -15.35M18,-9.9L17.9 -9.65L17.95 -9.4Q18.1 -9.15 18.55 -9.2Q19.3 -9.25 20.45 -9.85L21.5 -10.7L21.3 -11.1L20.5 -11.05L18.95 -10.55L18 -9.9M15.55,-8.65L15.45 -8.55L15.4 -8.45L15.5 -8.45L15.55 -8.65M-10.6,-29.7L-12.5 -27.85L-15.2 -24.45L-16.05 -23.15L-17.35 -20.75L-18.1 -19.25L-18.55 -18.8Q-18.45 -18.95 -18.5 -19.25L-18.95 -19.85L-20.2 -20.6L-20.65 -20.85Q-19.55 -24.6 -17.2 -27.7Q-14.4 -30.95 -13.55 -31.4L-12.8 -30.95L-11.15 -30.15L-10.6 -29.7M-19.65,-20.85L-19.2 -21.15Q-18.9 -20.1 -18.4 -20.25Q-17.9 -20.45 -16.3 -23.7L-16.75 -23.95L-17.05 -24.35L-16.9 -24.65L-16.45 -24.65L-16.4 -24.6L-15.8 -24.5L-14.95 -26.15L-14.8 -26.15L-14.5 -26.75L-14.55 -26.9Q-13.8 -27.25 -12.75 -29.6Q-11.75 -31.95 -15.5 -27.85L-15.9 -27.45L-16.25 -27.05Q-19.35 -23.5 -19.65 -20.85M-7.2,-27.6Q-8.9 -26.05 -8.85 -25.2L-8.8 -24.7L-9 -24.75L-8.9 -25.25Q-8.95 -25.7 -9.45 -25.7Q-10.1 -25.65 -10.05 -25L-9.85 -24.55L-10.15 -24.55L-10.15 -24.45L-9.65 -24.1L-9.4 -23.95L-10.55 -23.3L-11.05 -22.9L-11.6 -23.1L-12 -22.95L-11.85 -23.2Q-10.3 -25.9 -7.95 -28.45L-7.65 -28.75L-6.35 -28.2L-7.2 -27.6M-14.3,-17.55L-14.35 -17.5L-14.35 -17.45L-14.3 -17.55" />
<path style="fill:#33241D;fill-opacity:1" d="M16.55,-18.7L18.3 -19.7L19.65 -19.9Q20.35 -19.95 20.65 -20.4L21 -20.3L21.4 -18.65L21.7 -16Q21.8 -14.95 22.65 -13.5L22.65 -13.2L23.4 -11.95L23.35 -11.9L23.2 -11.6L23.45 -11.5L23.45 -11.4L23.15 -10.75L23.15 -10.45L23 -10.05L21.95 -9.65L18.65 -8.05Q15 -6.5 13.5 -5.75L12.85 -5.5L13.15 -7.8L12.95 -8.15L12.95 -8.2L12.85 -8.35L13.3 -9.3L14.95 -12.6L15.55 -15.85Q15.8 -17.15 16.4 -18.6L16.45 -18.7L16.55 -18.7M16.7,-12.8Q16.7 -11.55 16.25 -10.45L18 -9.9L15.4 -8.85L14.1 -6.85L22.95 -10.8L22.45 -11.55L21.8 -12.1L17.7 -11.15L21.1 -13.05L20.95 -13.4L20.65 -14.6L20.55 -15.9L17.25 -15.25L20.45 -16.45L20.35 -17.55Q20.2 -18.95 18.95 -19Q17.7 -18.95 17.15 -17.15Q16.65 -15.35 16.7 -12.8" />
<path style="fill:#A4C7CD;fill-opacity:1" d="M14.7,-20.95L14.7 -21.05L14.5 -21.1L14.6 -21.3L14.65 -21.35L15 -21.55L15.35 -21.65L14.7 -20.95M-22.45,-20.65L-22.45 -20.8L-22.4 -20.8L-22.2 -20.95L-22.3 -20.65L-22.4 -20.65L-22.45 -20.65" />
<path style="fill:#72583F;fill-opacity:1" d="M19.65,-17.5L19.45 -16.9Q19.1 -16.55 18.55 -16.5Q17.75 -16.45 17.6 -16.7L17.55 -17Q17.5 -17.95 19 -18.05Q19.7 -18.1 19.65 -17.5M17.15,-12.95Q17.1 -13.75 18.65 -14.35Q20.25 -14.95 20.3 -14.15Q20.3 -13.8 19.75 -13.2Q19 -12.55 17.95 -12.45Q17.25 -12.45 17.15 -12.7L17.15 -12.95M0.65,-16.9L4.75 -14.3L3.45 -10.25L-3.95 -13.5Q-3.8 -14.35 -3.1 -15.3L-0.1 -13.9Q-1.65 -14.35 -1.6 -13.45L0 -12.35Q1.85 -11.25 2.9 -11.3L3.15 -11.55L3.3 -11.95L3.05 -12.3L3.1 -12.3L2.05 -13.2Q-0.55 -14.5 -1.65 -15.45L-2.1 -15.9L-2.25 -15.9L-2.1 -15.95Q-2.2 -16.1 -1.95 -16.05L-2.95 -17.1Q-1.55 -19.6 0.15 -21.15L1.75 -20.55L2.75 -20.5L3.6 -19.95L3.6 -19.9L5.2 -19.35L0.95 -21.75Q1.55 -23.15 3 -24.7Q7.45 -22.35 9.1 -21.8Q6.75 -18.8 5.4 -15.85L0.95 -17.1L0.55 -17.1L0.55 -17L0.9 -16.8L0.65 -16.9M7,-20.45Q7 -20.9 5.6 -21.7Q4.2 -22.55 3.75 -22.3Q3.3 -22.1 3.35 -21.7Q3.35 -21.3 4.4 -20.65Q5.6 -19.9 6.6 -19.95Q7.05 -20 7 -20.45M0.3,-19.65Q-0.6 -19.65 -0.6 -19.15Q-0.6 -18.75 0.9 -17.9Q2.6 -16.95 4.2 -16.95Q5.25 -16.95 5.25 -17.7Q5.25 -17.95 3.05 -18.8L0.3 -19.65M18.95,-10.55L20.5 -11.05L21.3 -11.1L21.5 -10.7L20.45 -9.85Q19.3 -9.25 18.55 -9.2Q18.1 -9.15 17.95 -9.4L17.9 -9.65L18 -9.9L18.95 -10.55M-17.9,-19.4L-17.9 -19.3L-18.1 -18.8L-18.2 -18.75L-18.35 -18.65L-18.5 -18.65L-18.6 -18.65L-18.6 -18.75L-18.55 -18.8L-18.1 -19.25L-17.9 -19.4M-17.5,-24.75L-17.05 -24.35L-16.75 -23.95L-16.3 -23.7Q-17.9 -20.45 -18.4 -20.25Q-18.9 -20.1 -19.2 -21.15L-19.65 -20.85Q-19.35 -23.5 -16.25 -27.05L-16.25 -26.95L-16.2 -26.6Q-16.05 -26.3 -15.45 -26.15L-14.95 -26.15L-15.8 -24.5L-16.4 -24.6L-16.45 -24.65L-16.9 -24.65L-17.5 -24.75M-14.55,-26.9L-14.8 -27.2L-15.65 -27.5L-15.9 -27.45L-15.5 -27.85Q-11.75 -31.95 -12.75 -29.6Q-13.8 -27.25 -14.55 -26.9M-18.7,-23.3Q-18.65 -22.5 -17.75 -22.55Q-16.95 -22.6 -17 -23.2Q-17 -23.75 -17.85 -23.85Q-18.75 -24 -18.7 -23.3" />
<path style="fill:#9F744B;fill-opacity:1" d="M6.45,-23.7L6.8 -23.7L7.45 -23.45L8.05 -23.25Q8.45 -23.05 8.95 -22.8L6.45 -23.7M9.95,-22.35L9.95 -22.3L9.7 -22.45L9.4 -22.6L9.75 -22.5L9.85 -22.45L9.95 -22.35M5.8,-23.9L5.8 -23.95L6.3 -23.75L5.8 -23.9" />
<path style="fill:#A8865C;fill-opacity:1" d="M6.6,-19.95Q5.6 -19.9 4.4 -20.65Q3.35 -21.3 3.35 -21.7Q3.3 -22.1 3.75 -22.3Q4.2 -22.55 5.6 -21.7Q7 -20.9 7 -20.45Q7.05 -20 6.6 -19.95M0.8,-13.55L3.05 -12.3L3.3 -11.95L3.15 -11.55L2.9 -11.3Q1.85 -11.25 0 -12.35L-1.6 -13.45Q-1.65 -14.35 -0.1 -13.9L0.8 -13.55M3.05,-18.8Q5.25 -17.95 5.25 -17.7Q5.25 -16.95 4.2 -16.95Q2.6 -16.95 0.9 -17.9Q-0.6 -18.75 -0.6 -19.15Q-0.6 -19.65 0.3 -19.65L3.05 -18.8M-15.65,-27.5L-14.8 -27.2L-14.55 -26.9L-14.5 -26.75L-14.8 -26.15L-14.95 -26.15L-15.45 -26.15Q-16.05 -26.3 -16.2 -26.6L-16.25 -26.95L-16.25 -27.05L-15.9 -27.45L-15.65 -27.5M-17.85,-23.85Q-17 -23.75 -17 -23.2Q-16.95 -22.6 -17.75 -22.55Q-18.65 -22.5 -18.7 -23.3Q-18.75 -24 -17.85 -23.85" />
<path style="fill:#775331;fill-opacity:1" d="M5.15,-15.2L4.75 -14.3L0.65 -16.9L0.9 -16.8L1.45 -16.6L1.45 -16.55L1.5 -16.5Q4.1 -15.3 4.75 -15.35L4.8 -15.35L5.15 -15.2M-16.9,-24.65L-17.05 -24.35L-17.5 -24.75L-16.9 -24.65" />
<path style="fill:#F4FF93;fill-opacity:1" d="M6.35,-8.5L6.55 -8.65L6.4 -8.5L6.35 -8.5" />
<path style="fill:#413A77;fill-opacity:1" d="M23.35,-11.9L23.4 -11.95L22.65 -13.2L22.65 -13.5Q22.8 -14.3 24 -13.25L24.4 -12.8L24.7 -12.9L25.25 -13.2L26.05 -13.45L26.8 -13.7L26.85 -13.7L26.9 -13.4L26.75 -13.3L26.5 -13.1L25.15 -12.4Q24.2 -11.8 23.55 -11.75L23.35 -11.9M23.55,-11.35L23.65 -11.1L23.7 -11.15L23.8 -11.05L23.55 -9.85L23.25 -7.95L23.2 -7.7L22.95 -6.85L22.9 -6.85Q22.65 -6.85 22.6 -7.15L22.6 -7.5L22.6 -7.65L22.65 -8.35L19.75 -7.35L19.6 -7.65L19.75 -7.85Q20.25 -8.3 22.85 -9.6L23 -10.05L23.15 -10.45L23.15 -10.75L23.45 -11.4L23.55 -11.35M8.55,-6.8Q8.85 -7.55 10.8 -8.25Q12.75 -9 12.75 -8.55L12.55 -8.35Q11.9 -7.9 8.8 -6.75L8.65 -6.8L8.55 -6.8" />
<path style="fill:#FCFFE9;fill-opacity:1" d="M1.7,-3.95L1.55 -3.45L1.4 -3.45L1.35 -3.65L1.35 -3.9L1.7 -4.7L2.05 -5.75L2.25 -5.4L1.7 -3.95" />
<path style="fill:#63608C;fill-opacity:1" d="M26.85,-13.15L26.5 -13.1L26.75 -13.3L26.9 -13.4L26.95 -13.15L26.85 -13.15M15.5,-8.45L15.4 -8.45L15.45 -8.55L15.55 -8.65L15.5 -8.45M24.55,-10.5L24.5 -10.4L24.55 -10.6L24.55 -10.5M-7.3,-36.6L-7.1 -36.5L-7.15 -36.45L-7.3 -36.6M-18.1,-19.25L-17.35 -20.75L-17.8 -19.45L-17.9 -19.4L-18.1 -19.25" />
<path style="fill:#A7B8D7;fill-opacity:1" d="M-7.65,-28.9L-7.5 -29L-7.3 -29.15L-7.55 -28.9L-7.65 -28.9" />
<path style="fill:#504D79;fill-opacity:1" d="M-8.1,-24.75L-8.35 -24.8L-8.35 -25.05L-8.1 -25.7L-8.25 -25.15L-8.25 -24.9L-8.1 -24.75M-8.7,-24.5L-8.7 -24.55L-8.65 -24.5L-8.7 -24.5M-8.9,-23.9L-8.85 -23.95L-8.55 -23.8L-8.45 -23.8L-8.55 -23.35L-8.6 -23.3Q-8.65 -23.85 -8.9 -23.9M-8.8,-21.8L-8.75 -22.55L-8.55 -21.95L-8.55 -21.8L-8.8 -21.8M-9.75,-20.4L-9.75 -20.3L-9.95 -20.3L-9.75 -20.4M-12.5,-15.05L-11.4 -17.8L-10.7 -19.8L-10.55 -19.4L-10.95 -18.8L-11.4 -17.55L-12.45 -14.95L-12.5 -15.05M-12.5,-14.75L-12.4 -14.85L-12.4 -14.55L-12.45 -14.6L-12.45 -14.65L-12.5 -14.75M-12.35,-14.55L-12.1 -14.55L-12.05 -14.1L-12.35 -14.55M-13.25,-14.15L-12.95 -14.4L-12.95 -14.3L-12.95 -13.95Q-12.95 -14.25 -13.25 -14.15" />
<path style="fill:#FAFBFF;fill-opacity:1" d="M-25.45,-22.2L-24.85 -21.9Q-23.75 -21.15 -23.05 -20.9L-22.45 -20.4L-22.45 -20.35Q-22.55 -20.2 -22.65 -20.2L-23.7 -20.7L-24.7 -21.3Q-26.05 -21.95 -26.1 -22.4L-26.05 -22.4L-25.45 -22.2M-25.4,-20.75L-24.45 -20.6Q-23.55 -20.2 -23.55 -19.85L-23.55 -19.8L-23.65 -19.8L-25.4 -20.75" />
<path style="fill:#F7D94B;fill-opacity:1" d="M-22.45,-20.8L-22.45 -20.65L-22.4 -20.65L-22.45 -20.4L-23.05 -20.9L-22.45 -20.8" />
</g>
</svg>
