<?xml version="1.0" encoding="utf-8"?>
<svg version="1.1" id="Layer_1"
xmlns="http://www.w3.org/2000/svg"
xmlns:xlink="http://www.w3.org/1999/xlink"
xmlns:author="http://www.sothink.com"
width="53px" height="43px"
xml:space="preserve">
<g id="0" transform="matrix(1, 0, 0, 1, 25.95, 40.6)">
<path style="fill:none;stroke-width:3;stroke-linecap:round;stroke-linejoin:round;stroke-miterlimit:3;stroke:#000000;stroke-opacity:0.8" d="M15.15,-27.1L24.2 -22.85Q25 -22.35 24.8 -21.95Q25.15 -21.55 24.55 -19.6L24.45 -19.35L24.45 -19.3L24.45 -19.25L24.4 -19.2L24.4 -19.15L24.4 -19.1L24 -18.25L24 -18.2L24.1 -17.8L23.8 -17.2L23.7 -16.7L23.35 -13.85Q22.75 -11.6 22.55 -9.15L22.35 -8.55L22.5 -8.2Q22.5 -7.75 20.65 -6.8L19.8 -6.45L19.55 -6.3Q18.15 -5.55 17.05 -5.15L12.5 -3.6L8.7 -2.25L7.2 -1.65L5 -0.75L4.3 -0.4L4.25 -0.25L4.25 -0.4L3.8 -0.1L3.6 -0.1L3.2 0Q2.4 0.05 -1.1 -1.45L-8.4 -4.45Q-12.2 -6.1 -14.6 -7.3L-17.65 -8.9L-19.4 -9.8L-21.5 -11.1L-21.6 -11.2L-22.65 -12.45L-22.7 -12.5L-23.45 -15.1L-23.95 -17.85L-24.4 -23.45L-24.35 -23.65L-24.4 -24.4L-24.4 -24.6L-24.4 -25.05L-24.4 -25.15L-24.45 -25.85L-24.45 -25.95L-24.3 -25.85Q-24.5 -27.95 -23.5 -28.25L-22.3 -28.75L-22.05 -28.85L-15.25 -31.4L-11.05 -32.85Q-8.85 -34.3 -5.95 -35.8Q-4.75 -39.75 0.7 -39L2.45 -38.35Q5.6 -36.95 7.8 -33.15L15.15 -27.1z" />
<path style="fill:#413A77;fill-opacity:1" d="M6.9,-12.4L6.8 -12.3L6.7 -12.2L6.7 -12.05L6.7 -11.9L6.7 -11.65L6.65 -11.35L6.5 -11.2L6.25 -11.05L4.6 -10.75Q4.2 -10.75 4.05 -10.9L3.95 -11.1L3.95 -11.25L4 -11.5L4 -11.55L4.05 -11.6L4 -11.6L4.1 -11.85L4.3 -12.65L4.35 -14.6L12.6 -17.55L24.8 -21.95Q25.15 -21.55 24.55 -19.6L24.35 -19.6L24.45 -19.4L24.45 -19.35L24.45 -19.3L24.45 -19.25L24.4 -19.2L24.4 -19.15L24.4 -19.1L24 -18.25L24 -18.2L24.1 -17.8L23.8 -17.2L23.25 -16.8Q22.4 -16.2 21.45 -16.1L21.3 -16.1L21 -16.15L21 -16.1L20.95 -16.15L20.85 -16.3L20.85 -16.6L20.95 -17.45L21 -17.85L21.05 -18.05L21.05 -18.1Q20.15 -18.1 17.3 -17L13.35 -15.3L11.95 -14.7L11.8 -14.6L11.75 -14.6L11.75 -14.55L9.85 -13.65L7.9 -12.85L7.25 -12.55L7.15 -12.5L7.05 -12.5L6.9 -12.4M22.5,-8.2Q22.5 -7.75 20.65 -6.8L19.8 -6.45L19.55 -6.3Q18.15 -5.55 17.05 -5.15L12.5 -3.6L8.7 -2.25L7.2 -1.65L5 -0.75L4.5 -0.6Q4.35 -0.55 4.3 -0.65L4.3 -0.8Q4.3 -1.35 8.2 -2.8L8.25 -2.8L8.2 -3Q8.15 -3.75 10.05 -4.45Q11.8 -5.1 11.95 -4.1L13.1 -4.55L18.1 -6.6L20.9 -7.95L22.1 -8.6L22.35 -8.55L22.5 -8.2M23.6,-18.75L23.55 -18.7L23.6 -18.7L23.6 -18.75" />
<path style="fill:#33241D;fill-opacity:1" d="M21,-17.85L20.95 -17.45L20.85 -16.6L20.85 -16.3L20.95 -16.15L20.95 -15.85L20.85 -15.5L20.75 -14.9L20.75 -14.85L20.7 -14.65L20.05 -11.75L20.05 -11.35Q20.1 -11.1 20.25 -11L19.95 -10.35L19.85 -10.3L19.1 -10.1L19 -10.05L18.9 -10.05L19.15 -11.75L15.75 -10.35L15.5 -10.25L14.05 -9.6L12.9 -9.15L12.1 -8.9L19.3 -12.9L20.1 -16.45L15.55 -12.45L15.55 -12.5L18.65 -16.65Q13 -14.25 6.55 -11.1L6.25 -10.9L6.5 -11.2L6.65 -11.35L6.7 -11.65L6.7 -11.9L6.7 -12.05L6.7 -12.2L6.8 -12.3L6.9 -12.4L7.05 -12.45L7.05 -12.5L7.15 -12.5L7.25 -12.55L7.9 -12.85L9.85 -13.65L11.75 -14.55L11.75 -14.6L11.8 -14.6L11.95 -14.7L13.35 -15.3L17.3 -17Q20.15 -18.1 21.05 -18.1L20.95 -17.85L21 -17.85M5.9,-6.55L5.95 -7.75L14.2 -11.1L5.95 -6.25L5.9 -6.55" />
<path style="fill:#514033;fill-opacity:1" d="M15.55,-12.6Q15.5 -13.1 14.75 -12.85L13.2 -12.2L11.55 -11.5Q10.45 -10.95 10.45 -10.7L10.5 -10.5L10.85 -10.4L13.7 -11.45L14.85 -11.95L15.55 -12.45L20.1 -16.45L19.3 -12.9L12.1 -8.9L11 -8.6Q10.15 -8.4 10.15 -7.9L10.45 -7.4L11.5 -7.45L14.25 -8.5Q16.5 -9.4 16.45 -9.9Q16.45 -10.45 15.75 -10.35L19.15 -11.75L18.9 -10.05L15.4 -8.7L9.7 -6.65L7.35 -5.85L6.65 -5.4Q6.1 -5.35 5.95 -5.95L5.95 -6.25L14.2 -11.1L5.95 -7.75L6.05 -9.6L6.55 -11.1Q13 -14.25 18.65 -16.65L15.55 -12.5L15.55 -12.6M1.1,-16.2L1.05 -16.2L0.9 -15.05L0.95 -14.95L1.05 -14.7L1.05 -14.55L1 -13.95L0.9 -13.4L0.95 -13.05L-5.2 -16.45Q-5.25 -12.75 -5.4 -11.75L-5.45 -11.7L-5.35 -11.65L0.85 -9.15L0.85 -8.1L-5.4 -11.55L-5.4 -10.6L-5.25 -10.5L-4 -9.65L-5.35 -10.25L-5.35 -10.3L-5.4 -10.35L-5.4 -10.3L-5.45 -9.95Q-5.65 -9.25 -6.2 -9.1L0.75 -6.25L0.75 -5.1L0.7 -5.15L0.55 -5.2L0.4 -5.2L-8.65 -9.2L-7.35 -9Q-6.25 -9.05 -6 -11.9Q-5.75 -14.75 -6.3 -15.75Q-6.1 -15.9 -7.4 -16.95Q-8.75 -18.1 -11.25 -19.1Q-13.75 -20.05 -13.85 -18.55L-14.05 -16.75L-14.1 -15.2L-13.85 -12.9Q-13.75 -11.75 -11.25 -10.35L-13.85 -11.5Q-18.4 -13.2 -19.3 -14.95Q-20.2 -16.6 -20.05 -22.45L-20.05 -23.35L-19.95 -26.5L1.1 -16.2M-19.5,-22.15L-19.6 -22.2L-19.6 -22.15L-19.5 -22.15M-15.45,-17.8L-14.3 -17.15L-14.25 -17.75L-14.2 -19.45L-19.4 -21.9L-19.5 -19.9L-18.1 -19.15L-17.4 -18.55Q-16.35 -17.75 -15.55 -17.8L-15.45 -17.8M-18.55,-14.7Q-17.9 -13.9 -13.95 -12.2L-14.05 -12.4L-14.25 -13.45L-14.3 -13.9L-14.3 -13.95L-14.3 -14L-14.4 -14.05L-14.85 -14.2L-14.9 -14.3L-14.35 -14.2L-14.35 -15.45L-14.35 -15.9L-14.35 -16.15L-19.35 -18.15L-19.25 -17.45Q-18.95 -15.2 -18.55 -14.7" />
<path style="fill:#72583F;fill-opacity:1" d="M12.9,-9.15L13.5 -9.35L14.05 -9.6L15.5 -10.25L15.75 -10.35Q16.45 -10.45 16.45 -9.9Q16.5 -9.4 14.25 -8.5L11.5 -7.45L10.45 -7.4L10.15 -7.9Q10.15 -8.4 11 -8.6L12.1 -8.9L12.9 -9.15M15.55,-12.45L14.85 -11.95L13.7 -11.45L10.85 -10.4L10.5 -10.5L10.45 -10.7Q10.45 -10.95 11.55 -11.5L13.2 -12.2L14.75 -12.85Q15.5 -13.1 15.55 -12.6L15.55 -12.5L15.55 -12.45M-5.4,-11.75Q-5.25 -12.75 -5.2 -16.45L0.95 -13.05L0.9 -9.8L-5.4 -11.75M-6.2,-9.1Q-5.65 -9.25 -5.45 -9.95L-5.35 -10.25L-4 -9.65L-5.25 -10.5L-5.4 -10.6L-5.4 -11.55L0.85 -8.1L0.75 -6.25L-6.2 -9.1M-4.2,-12.5Q-4.2 -12.3 -3 -11.5Q-1.65 -10.65 -0.75 -10.7L-0.25 -11L0 -11.45Q0 -11.8 -2.1 -12.6L-4.2 -12.5M-19.5,-19.9L-19.4 -21.9L-14.2 -19.45L-14.25 -17.75L-14.3 -17.15L-15.45 -17.8Q-15 -17.85 -15.05 -18.3L-16.7 -19.5Q-18.35 -20.45 -18.3 -19.35L-18.1 -19.15L-19.5 -19.9M-14.65,-14L-14.25 -13.45L-14.05 -12.4L-13.95 -12.2Q-17.9 -13.9 -18.55 -14.7Q-18.95 -15.2 -19.25 -17.45L-14.35 -15.45L-14.35 -14.2L-14.9 -14.3L-16.65 -15.75L-18.5 -15.8L-17.65 -14.5Q-16.55 -13.25 -15.3 -13.35Q-14.85 -13.35 -14.75 -14L-14.85 -14.2L-14.4 -14.05L-14.3 -14L-14.3 -13.95L-14.65 -14M-2.7,-7.9Q-1.1 -7.1 -0.35 -7.15Q0.2 -7.15 0.2 -7.7Q0.15 -8.2 -2.1 -9.15L-4.35 -9.05Q-4.3 -8.7 -2.7 -7.9" />
<path style="fill:#A4B7C6;fill-opacity:1" d="M4,-11.55L4 -11.5L3.95 -11.25L3.95 -11.1L4.05 -10.9L4.05 -10.65L4 -10.7L3.9 -10.65L3.9 -10.55L3.8 -8.4L3.45 -8.25L3.4 -8.15L3.3 -8L3.3 -7.9L3.25 -8.05L2.55 -7.8Q2.4 -7.7 2.4 -7.35L2.65 -6.6Q2.95 -5.9 3.25 -5.9L3.35 -5.95L3.3 -5.65Q3.35 -5.2 3.7 -5.15L3.65 -4.7L3.7 -4.5L3.75 -1.9L3.95 -1.8L3.85 -0.8Q2.35 0.2 -19.05 -10.9L-19.2 -10.85Q-19.95 -10.8 -21.05 -11.55L-21.8 -12.15L-22.65 -12.45L-22.7 -12.5L-23.45 -15.1L-23.95 -17.85L-24.4 -23.45L-24.35 -23.65L-24.4 -24.4L-24.4 -24.6L-24.4 -25.05L-20.8 -22.85L-20.7 -21.7L-20.7 -21.55L-20.6 -21.45L-20.6 -21.4L-20.65 -19L-20.75 -19L-20.7 -19.45Q-20.75 -20.3 -21.15 -19.4L-21.6 -17.8L-21.55 -17.65L-21.6 -17.35L-21.45 -16.85L-20.85 -16.4L-20.8 -16.4L-20.7 -16.4L-20.45 -16.55Q-19.9 -13.1 -17.8 -12.55L-3.6 -6.1Q0.5 -4.1 0.75 -5.1L0.75 -6.25L0.85 -8.1L0.85 -9.15L0.9 -9.8L0.95 -13.05L0.9 -13.4L3.35 -12.2L3.35 -12.8L1 -13.95L1.05 -14.55L1.05 -14.7L0.95 -14.95L0.9 -15.05L1.05 -16.2L1.1 -16.2L4.35 -14.6L4.3 -12.65L4.1 -11.85L4 -11.6L4 -11.55M-20.6,-26.8L-20.9 -23.9L-24.3 -25.85Q-24.5 -27.95 -23.5 -28.25L-20.6 -26.8M-9,-16.2L-9.05 -16.2L-9 -16.05L-8.4 -14.45L-8.15 -13.85L-8.15 -13.75L-7.95 -12.8L-8.1 -12.1L-8.4 -11.7L-9 -11.15L-9.1 -11.2L-9.25 -11.2Q-9.7 -11.15 -9.7 -10.6L-9.7 -10.55L-9.85 -10.55L-11.5 -11.25L-12.7 -11.9L-13.3 -12.4L-13.6 -13.5L-13.65 -13.7L-13.7 -14.35L-13.5 -16.7L-13.5 -16.9Q-13.4 -17.75 -12.75 -17.75L-12 -17.55L-11.3 -17.3Q-9.9 -17 -9 -16.2M-12.7,-14.8L-12.7 -14.75L-12.7 -14.65L-12.6 -14.4L-12.6 -14.35L-12.35 -13.95L-12.05 -13.6L-11.85 -13.3L-11.9 -12.95L-11.95 -12.5L-11.85 -12.15L-11.7 -11.9L-11.9 -11.9L-11.55 -11.45L-11.1 -11.15L-10.8 -11.1Q-10.2 -11.05 -9.9 -11.55Q-9.65 -11.85 -9.65 -12.2L-9.8 -12.6Q-9 -12.75 -9.05 -14L-9.8 -15.45Q-10.45 -16.35 -10.45 -15.55L-11.1 -15.85Q-12.75 -16.3 -12.7 -15.15L-12.7 -14.95L-12.7 -14.8M-10.3,-11.85L-10.35 -11.75L-10.3 -12L-10.3 -11.85M-10.3,-12.35L-10.3 -12.65L-10.2 -12.65L-10.1 -12.65L-10.3 -12.35" />
<path style="fill:#63608C;fill-opacity:1" d="M20.95,-17.85L21.05 -18.1L21.05 -18.05L21 -17.85L20.95 -17.85M20.95,-15.85L20.95 -16.15L21 -16.1L20.95 -15.85M4,-11.6L4.05 -11.6L4 -11.55L4 -11.6M23.6,-18.7L23.55 -18.7L23.6 -18.75L23.6 -18.7" />
<path style="fill:#5B5393;fill-opacity:1" d="M-21.5,-11.1L-21.6 -11.2L-22.65 -12.45L-21.8 -12.15L-21.05 -11.55Q-19.95 -10.8 -19.2 -10.85L-19.05 -10.9Q2.35 0.2 3.85 -0.8L3.95 -1.8L4.05 -1.7L4 -2.15L4 -2.25L4.05 -5.35L4.05 -5.55L4.1 -6.05L3.7 -6.55L3.55 -7.15Q3.5 -7.75 3.7 -7.75L3.6 -8.05L3.95 -8.3L4.1 -8.35L4.15 -10.3L4.05 -10.65L4.05 -10.9Q4.2 -10.75 4.6 -10.75L6.25 -11.05L6.5 -11.2L6.25 -10.9L6.55 -11.1L6.05 -9.6L5.95 -7.75L5.9 -6.55L5.95 -6.25L5.95 -5.95Q6.1 -5.35 6.65 -5.4L7.35 -5.85L9.7 -6.65L6.45 -5.15L6.55 -5L6.8 -4.95Q8.1 -5 14 -7.35Q19.75 -9.6 19.75 -9.85Q19.7 -10.15 19 -10.05L19.1 -10.1L19.85 -10.3L19.95 -10.3L19.95 -10.35L20.25 -11L20.45 -10.95Q20.65 -10.95 21.5 -15.25L21.3 -16.1L21.45 -16.1Q22.4 -16.2 23.25 -16.8L23.8 -17.2L23.7 -16.7L23.35 -13.85Q22.75 -11.6 22.55 -9.15L22.35 -8.55L22.1 -8.6L20.9 -7.95L18.1 -6.6L13.1 -4.55L11.95 -4.1Q11.8 -5.1 10.05 -4.45Q8.15 -3.75 8.2 -3L8.25 -2.8L8.2 -2.8Q4.3 -1.35 4.3 -0.8L4.3 -0.65Q4.35 -0.55 4.5 -0.6L5 -0.75L4.3 -0.4L4.25 -0.25L4.25 -0.4L3.8 -0.1L3.6 -0.1L3.2 0Q2.4 0.05 -1.1 -1.45L-8.4 -4.45Q-12.2 -6.1 -14.6 -7.3L-17.65 -8.9L-21.5 -11.1M1,-13.95L3.35 -12.8L3.35 -12.2L0.9 -13.4L1 -13.95M-20.35,-16.85L-20.35 -17L-20.55 -17.4L-20.55 -17.45L-20.6 -17.45L-21 -17.75L-21.1 -17.9L-21.2 -18.4Q-21.2 -19.1 -20.75 -19L-20.65 -19L-20.6 -21.4L-20.6 -21.45L-20.7 -21.55L-20.7 -21.7L-20.8 -22.85L-24.4 -25.05L-24.4 -25.15L-24.45 -25.85L-24.45 -25.95L-24.3 -25.85L-20.9 -23.9L-20.6 -26.8L-19.95 -26.5L-20.05 -23.35L-20.05 -22.45Q-20.2 -16.6 -19.3 -14.95Q-18.4 -13.2 -13.85 -11.5L-11.25 -10.35Q-13.75 -11.75 -13.85 -12.9L-14.1 -15.2L-14.05 -16.75L-13.85 -18.55Q-13.75 -20.05 -11.25 -19.1Q-8.75 -18.1 -7.4 -16.95Q-6.1 -15.9 -6.3 -15.75Q-5.75 -14.75 -6 -11.9Q-6.25 -9.05 -7.35 -9L-8.65 -9.2L0.4 -5.2L0.55 -5.2L0.7 -5.15L0.75 -5.1Q0.5 -4.1 -3.6 -6.1L-17.8 -12.55Q-19.9 -13.1 -20.45 -16.55L-20.35 -16.85M-11.3,-17.3L-12 -17.55L-12.75 -17.75Q-13.4 -17.75 -13.5 -16.9L-13.5 -16.7L-13.7 -14.35L-13.65 -13.7L-13.6 -13.5L-13.3 -12.4L-12.7 -11.9L-11.5 -11.25L-9.85 -10.55L-9.7 -10.55L-9.7 -10.5L-9.35 -10.1L-8.75 -10.15L-8.45 -10.4Q-8.1 -10.45 -7.85 -10.7L-7.5 -11.4L-7.4 -11.7L-7.25 -12.55Q-7.25 -13.3 -7.85 -14.6L-8.55 -15.85L-9 -16.2Q-9.9 -17 -11.3 -17.3M-11.4,-11.8L-11.7 -11.9L-11.85 -12.15L-11.95 -12.5L-11.9 -12.95L-11.85 -13.3L-12.05 -13.6L-12.35 -13.95L-12.6 -14.35L-12.6 -14.4L-12.7 -14.65L-12.7 -14.75L-12.7 -14.8L-12.7 -14.95Q-12.65 -15.55 -11.95 -15.7Q-11.1 -15.9 -11.1 -15.4L-11.15 -15.2L-11.4 -14.95L-11.75 -14.6L-11.65 -14.4L-11.45 -14.5L-11.05 -14.25L-10.95 -13.95Q-10.95 -13.75 -11.05 -13.7L-11.25 -12.45L-11.05 -12.15Q-11.05 -11.85 -11.3 -11.8L-11.4 -11.8" />
<path style="fill:#FDFDFF;fill-opacity:1" d="M-19.95,-26.5L-20.6 -26.8L-23.5 -28.25L-22.3 -28.75L4.4 -15.3L12.6 -17.55L4.35 -14.6L1.1 -16.2L-19.95 -26.5" />
<path style="fill:#503E66;fill-opacity:1" d="M6.9,-12.4L7.05 -12.5L7.05 -12.45L6.9 -12.4" />
<path style="fill:#CBF2FF;fill-opacity:1" d="M-20.45,-16.55L-20.7 -16.4L-20.8 -16.4L-20.85 -16.4L-21.45 -16.85L-21.6 -17.35L-21.55 -17.65L-21.6 -17.8L-21.15 -19.4Q-20.75 -20.3 -20.7 -19.45L-20.75 -19Q-21.2 -19.1 -21.2 -18.4L-21.1 -17.9L-21 -17.75L-20.6 -17.45L-20.55 -17.45L-20.55 -17.4L-20.35 -17L-20.35 -16.85L-20.45 -16.55M4.15,-10.3L4.1 -8.35L3.95 -8.3L3.6 -8.05L3.7 -7.75Q3.5 -7.75 3.55 -7.15L3.7 -6.55L4.1 -6.05L4.05 -5.55L4.05 -5.35L4 -2.25L4 -2.15L4.05 -1.7L3.95 -1.8L3.75 -1.9L3.7 -4.5L3.65 -4.7L3.7 -5.15Q3.35 -5.2 3.3 -5.65L3.35 -5.95L3.25 -5.9Q2.95 -5.9 2.65 -6.6L2.4 -7.35Q2.4 -7.7 2.55 -7.8L3.25 -8.05L3.3 -7.9L3.3 -8L3.4 -8.15L3.45 -8.25L3.8 -8.4L3.9 -10.55L3.9 -10.65L4 -10.7L4.05 -10.65L4.15 -10.3M-9.7,-10.6Q-9.7 -11.15 -9.25 -11.2L-9.1 -11.2L-9 -11.15L-8.4 -11.7L-8.1 -12.1L-7.95 -12.8L-8.15 -13.75L-8.15 -13.85L-8.4 -14.45L-9 -16.05L-9.05 -16.2L-9 -16.2L-8.55 -15.85L-7.85 -14.6Q-7.25 -13.3 -7.25 -12.55L-7.4 -11.7L-7.5 -11.4L-7.85 -10.7Q-8.1 -10.45 -8.45 -10.4L-8.75 -10.15L-9.35 -10.1L-9.7 -10.5L-9.7 -10.55L-9.7 -10.6M-11.3,-11.8L-11 -11.7L-10.35 -11.75L-10.3 -11.85L-10.3 -12L-10.3 -12.05L-10.25 -12.25L-10.3 -12.35L-10.1 -12.65L-10.2 -12.65L-10.3 -12.65L-10.4 -12.85L-10.5 -13.1Q-9.5 -13.8 -9.5 -14.1L-10 -14.9L-10.45 -15.45L-10.45 -15.55Q-10.45 -16.35 -9.8 -15.45L-9.05 -14Q-9 -12.75 -9.8 -12.6L-9.65 -12.2Q-9.65 -11.85 -9.9 -11.55Q-10.2 -11.05 -10.8 -11.1L-11.1 -11.15L-11.55 -11.45L-11.9 -11.9L-11.7 -11.9L-11.4 -11.8L-11.3 -11.8" />
<path style="fill:#A8865C;fill-opacity:1" d="M0.9,-9.8L0.85 -9.15L-5.35 -11.65L-5.45 -11.7L-5.4 -11.75L0.9 -9.8M-2.1,-12.6Q0 -11.8 0 -11.45L-0.25 -11L-0.75 -10.7Q-1.65 -10.65 -3 -11.5Q-4.2 -12.3 -4.2 -12.5L-2.1 -12.6M-15.55,-17.8Q-16.35 -17.75 -17.4 -18.55L-18.1 -19.15L-18.3 -19.35Q-18.35 -20.45 -16.7 -19.5L-15.05 -18.3Q-15 -17.85 -15.45 -17.8L-15.55 -17.8M-19.25,-17.45L-19.35 -18.15L-14.35 -16.15L-14.35 -15.9L-14.35 -15.45L-19.25 -17.45M-14.9,-14.3L-14.85 -14.2L-14.75 -14Q-14.85 -13.35 -15.3 -13.35Q-16.55 -13.25 -17.65 -14.5L-18.5 -15.8L-16.65 -15.75L-14.9 -14.3M-14.3,-13.95L-14.3 -13.9L-14.25 -13.45L-14.65 -14L-14.3 -13.95M-4.35,-9.05L-2.1 -9.15Q0.15 -8.2 0.2 -7.7Q0.2 -7.15 -0.35 -7.15Q-1.1 -7.1 -2.7 -7.9Q-4.3 -8.7 -4.35 -9.05" />
<path style="fill:#7290A8;fill-opacity:1" d="M21,-16.1L21 -16.15L21.3 -16.1L21.5 -15.25Q20.65 -10.95 20.45 -10.95L20.25 -11Q20.1 -11.1 20.05 -11.35L20.05 -11.75L20.7 -14.65L20.75 -14.85L20.75 -14.9L20.85 -15.5L20.95 -15.85L21 -16.1M19,-10.05Q19.7 -10.15 19.75 -9.85Q19.75 -9.6 14 -7.35Q8.1 -5 6.8 -4.95L6.55 -5L6.45 -5.15L9.7 -6.65L15.4 -8.7L18.9 -10.05L19 -10.05M-10.3,-12.35L-10.25 -12.25L-10.3 -12.05L-10.3 -12L-10.35 -11.75L-11 -11.7L-11.3 -11.8Q-11.05 -11.85 -11.05 -12.15L-11.25 -12.45L-11.05 -13.7Q-10.95 -13.75 -10.95 -13.95L-11.05 -14.25L-11.45 -14.5L-11.65 -14.4L-11.75 -14.6L-11.4 -14.95L-11.15 -15.2L-11.1 -15.4Q-11.1 -15.9 -11.95 -15.7Q-12.65 -15.55 -12.7 -14.95L-12.7 -15.15Q-12.75 -16.3 -11.1 -15.85L-10.45 -15.55L-10.45 -15.45L-10 -14.9L-9.5 -14.1Q-9.5 -13.8 -10.5 -13.1L-10.4 -12.85L-10.3 -12.65L-10.3 -12.35" />
<path style="fill:#775331;fill-opacity:1" d="M14.05,-9.6L13.5 -9.35L12.9 -9.15L14.05 -9.6" />
<path style="fill:#3F220C;fill-opacity:1" d="M-3.9,-32.35L19.2 -22L4.65 -16.5L-17.9 -27.2Q-18.15 -28.2 -3.9 -32.35" />
<path style="fill:#BDD6DE;fill-opacity:1" d="M24.8,-21.95L12.6 -17.55L4.4 -15.3L-22.3 -28.75Q-14.85 -31.8 -5 -34.75L-2.4 -34.6Q12.3 -28.65 24.2 -22.85Q25 -22.35 24.8 -21.95M19.45,-24L-3.1 -33.8L-5.8 -33.2Q-16.1 -30.35 -19.95 -28.3L-17.9 -27.2L4.65 -16.5L19.2 -22Q21.35 -22.9 19.45 -24" />
<path style="fill:#B86C23;fill-opacity:1" d="M24.45,-19.35L24.45 -19.4L24.35 -19.6L24.55 -19.6L24.45 -19.35" />
<path style="fill:#704829;fill-opacity:1" d="M19.2,-22L-3.9 -32.35Q-18.15 -28.2 -17.9 -27.2L-19.95 -28.3Q-16.1 -30.35 -5.8 -33.2L-3.1 -33.8L19.45 -24Q21.35 -22.9 19.2 -22" />
<path style="fill:#909EB8;fill-opacity:1" d="M-17.65,-8.9L-19.4 -9.8L-21.5 -11.1L-17.65 -8.9M-19.6,-22.15L-19.6 -22.2L-19.5 -22.15L-19.6 -22.15" />
<path style="fill:#C4995A;fill-opacity:1" d="M-5.45,-9.95L-5.4 -10.3L-5.4 -10.35L-5.35 -10.3L-5.35 -10.25L-5.45 -9.95" />
<path style="fill:none;stroke-width:0.05;stroke-linecap:round;stroke-linejoin:round;stroke-miterlimit:3;stroke:#3D460B;stroke-opacity:0.2" d="M24.4,-19.1L24.4 -19.15L24.4 -19.2" />
<path style="fill:#413A77;fill-opacity:1" d="M4.35,-6.35Q4.05 -6.3 3.9 -6.7L3.85 -7.1Q3.8 -8 4.2 -8Q4.65 -7.95 4.7 -7.1Q4.75 -6.35 4.35 -6.35" />
<path style="fill:#CD8A0B;fill-opacity:1" d="M1.85,-17.85L-5.25 -21.2L-4.95 -21.35L-5.55 -21.35L-17.5 -27Q-15.1 -31 -5.95 -35.8Q-4.75 -39.75 0.7 -39L2.45 -38.35Q5.8 -35.65 4.05 -32.95Q5.9 -31.45 3.55 -30.7Q1.3 -30.45 2.55 -29.1Q4.2 -28 2.1 -27.05Q2.95 -20.3 1.85 -17.85M-11.9,-25.95Q-9.35 -24.65 -8.9 -24.85L-8.45 -25.2Q-5.75 -23.8 -3.1 -25.75Q-2.15 -24.7 -3.75 -23.7Q-5.1 -22.85 -6.3 -23.1L-2.8 -21.85L1.05 -21.1Q1.8 -22.25 1.75 -23.15Q1.6 -24.5 -0.3 -25.65Q0.15 -26.1 -0.3 -26.6Q1.5 -26.6 1.05 -27.85Q2.5 -29.45 0.6 -30Q-1.2 -31 -2.2 -32.3Q-0.3 -31.15 0.95 -32.05Q3.35 -31.05 2.45 -33.5Q3.85 -33.3 3.65 -34.65Q3.35 -36 2.3 -36.05Q1.7 -37.75 -0.3 -38.2Q-4.85 -39.45 -5.25 -34.5Q-10.05 -33.55 -13.5 -29.8L-13.55 -29.75L-13.95 -29.3L-14.1 -29.1L-13.9 -29Q-14.5 -27.25 -11.9 -25.95" />
<path style="fill:#FCC81E;fill-opacity:1" d="M-5.25,-21.2L-5.55 -21.35L-4.95 -21.35L-5.25 -21.2M-2.95,-22.15Q1.95 -23 -1.55 -24.75Q-0.65 -26.6 -2.6 -26.75Q-3.9 -27.5 -2.6 -28.05Q-1.55 -27.2 -1.2 -28.8Q-0.75 -30.55 -3.65 -31Q-2.2 -32.05 -3.95 -33.4Q-5.75 -34.7 -7.1 -33.2Q-9.1 -33.4 -8.55 -31.85Q-11.85 -31.95 -13.9 -29L-14.1 -29.1L-13.95 -29.3L-13.55 -29.75L-13.5 -29.8Q-10.05 -33.55 -5.25 -34.5Q-4.85 -39.45 -0.3 -38.2Q1.7 -37.75 2.3 -36.05Q3.35 -36 3.65 -34.65Q3.85 -33.3 2.45 -33.5Q3.35 -31.05 0.95 -32.05Q-0.3 -31.15 -2.2 -32.3Q-1.2 -31 0.6 -30Q2.5 -29.45 1.05 -27.85Q1.5 -26.6 -0.3 -26.6Q0.15 -26.1 -0.3 -25.65Q1.6 -24.5 1.75 -23.15Q1.8 -22.25 1.05 -21.1L-2.8 -21.85L-2.95 -22.15M11.45,-22.15Q12.05 -22.35 11.6 -23.3Q9.55 -22.45 9.55 -24.3Q10.3 -23.2 11.85 -24.3Q13.2 -25.7 11.35 -26.1Q9.75 -26.7 8.4 -26.1Q7.05 -26.15 7.55 -26.8Q9.9 -27.4 8.75 -28.55Q8.7 -30.35 6.75 -29.95Q4.95 -29.5 6.3 -28.05Q4.8 -27.4 5.75 -26.75Q5.45 -25.6 6.65 -25.2Q4 -25.1 4.7 -23.7Q5.4 -22.35 6.55 -21.9Q4 -20.95 5.6 -19.3L5.45 -19.15Q7.45 -19.05 11.55 -20.35Q11.7 -21.1 11.45 -22.15M9.55,-22.25Q10.85 -21.4 7 -21.2Q8.25 -23.1 9.55 -22.25M-3,-34Q3.2 -31.55 -0.4 -36.1Q1.05 -38.15 -2 -38.05Q-4.05 -37.85 -3.8 -36.55Q-5.25 -35 -3 -34M-7.4,-28.3Q-9.9 -28.6 -9.15 -30.15Q-7.65 -28.2 -5.2 -29.65Q-5.35 -28.05 -7.4 -28.3" />
<path style="fill:#9C6804;fill-opacity:1" d="M2.1,-27.05Q4.2 -28 2.55 -29.1Q1.3 -30.45 3.55 -30.7Q5.9 -31.45 4.05 -32.95Q5.8 -35.65 2.45 -38.35Q5.6 -36.95 7.8 -33.15Q13.15 -29.1 17.1 -25.25Q19.1 -23.7 19 -21.65L7.75 -17.6L6.8 -17.25L4.65 -16.5L1.85 -17.85Q2.95 -20.3 2.1 -27.05" />
<path style="fill:#FFE638;fill-opacity:1" d="M-2.8,-21.85L-6.3 -23.1Q-5.1 -22.85 -3.75 -23.7Q-2.15 -24.7 -3.1 -25.75Q-5.75 -23.8 -8.45 -25.2L-8.9 -24.85Q-9.35 -24.65 -11.9 -25.95Q-14.5 -27.25 -13.9 -29Q-11.85 -31.95 -8.55 -31.85Q-9.1 -33.4 -7.1 -33.2Q-5.75 -34.7 -3.95 -33.4Q-2.2 -32.05 -3.65 -31Q-0.75 -30.55 -1.2 -28.8Q-1.55 -27.2 -2.6 -28.05Q-3.9 -27.5 -2.6 -26.75Q-0.65 -26.6 -1.55 -24.75Q1.95 -23 -2.95 -22.15L-2.8 -21.85M11.55,-20.35Q7.45 -19.05 5.45 -19.15L5.6 -19.3Q4 -20.95 6.55 -21.9Q5.4 -22.35 4.7 -23.7Q4 -25.1 6.65 -25.2Q5.45 -25.6 5.75 -26.75Q4.8 -27.4 6.3 -28.05Q4.95 -29.5 6.75 -29.95Q8.7 -30.35 8.75 -28.55Q9.9 -27.4 7.55 -26.8Q7.05 -26.15 8.4 -26.1Q9.75 -26.7 11.35 -26.1Q13.2 -25.7 11.85 -24.3Q10.3 -23.2 9.55 -24.3Q9.55 -22.45 11.6 -23.3Q12.05 -22.35 11.45 -22.15Q11.7 -21.1 11.55 -20.35M7,-21.2Q10.85 -21.4 9.55 -22.25Q8.25 -23.1 7 -21.2M-3.8,-36.55Q-4.05 -37.85 -2 -38.05Q1.05 -38.15 -0.4 -36.1Q3.2 -31.55 -3 -34Q-5.25 -35 -3.8 -36.55M-5.2,-29.65Q-7.65 -28.2 -9.15 -30.15Q-9.9 -28.6 -7.4 -28.3Q-5.35 -28.05 -5.2 -29.65" />
<path style="fill:#000000;fill-opacity:0.298039" d="M10.4,-18.55Q10.2 -18.15 9.5 -18.15L9.2 -18.15L9.75 -17Q9.75 -15.95 8.6 -15.95L7.9 -16.1L8.1 -15.3L7.85 -14.55Q7.5 -14.1 6.85 -14.1Q6.25 -14.1 5.85 -14.5L5.65 -14.75Q5.45 -14.25 4.75 -14.25Q4.05 -14.25 3.75 -14.7L3.6 -15.3L3.6 -15.45Q3.25 -15 2.7 -15Q1.55 -15 1.55 -16.15Q1.55 -17.6 2.7 -17.4Q3.85 -17.2 3.85 -16.15L3.85 -16.05Q4.1 -16.35 4.55 -16.35Q5.2 -16.35 5.5 -15.85L5.65 -15.65L5.8 -16Q6.15 -16.65 7.05 -16.65L7.3 -16.6L7.2 -16.9L7.45 -17.75Q7.85 -18.35 8.4 -18.35L8.6 -18.35Q8.2 -18.65 8.2 -19.3Q8.2 -20.1 8.65 -20.4L8.35 -20.4Q7.1 -20.4 7.1 -21.75L7.4 -22.35Q7.7 -22.85 8.4 -22.85Q9.45 -22.85 9.5 -21.6L9.3 -20.9L9 -20.55L9.4 -20.6Q10.5 -20.6 10.5 -19.3L10.4 -18.55M5.4,-24.15Q5.4 -23.1 4.45 -23.1Q3.35 -23.1 3.35 -24Q3.35 -25.05 4.3 -25.05Q4.85 -25.05 5.2 -24.65L5.4 -24.15M6.1,-24.05Q6.75 -24.05 7.1 -23.45L7.4 -22.75L7.2 -22.2Q6.8 -21.8 6.1 -21.8L5.65 -21.85L5.8 -21.25L5.55 -20.55Q5.2 -20.1 4.45 -20.1L3.85 -20.2L4.25 -19.75L4.55 -18.95Q4.55 -18.35 4.1 -17.9Q3.75 -17.45 3.2 -17.45Q2.45 -17.45 2.15 -18.05Q1.85 -18.5 1.85 -18.8L2.15 -19.65Q2.45 -20.4 3.1 -20.4L3.6 -20.3L3.3 -20.7L3.25 -21.35Q3.25 -22.8 4.45 -22.8L5.15 -22.6L5.15 -22.65L5.3 -23.4Q5.5 -24.05 6.1 -24.05" />
<path style="fill:#FFD7E1;fill-opacity:1" d="M-7.8,-22.75Q-7.45 -24.25 -5.7 -25.9L-5.7 -25.85L-5.7 -24.55Q-6.85 -24.05 -7.45 -22.7L-7.8 -22.75" />
<path style="fill:#850F49;fill-opacity:1" d="M-4.5,-22.85L-5.85 -22.5L-5.7 -24.55L-5.7 -25.85Q-5.1 -25.65 -4.35 -25.05Q-3.85 -23.25 -4.5 -22.85" />
<path style="fill:#FF808D;fill-opacity:1" d="M-5.85,-22.5L-4.5 -22.85L-2.75 -23.4L-3.8 -21.9Q-4.55 -21.85 -4.95 -21.45L-5.1 -21.2L-5.3 -21.15L-5.85 -22.5" />
<path style="fill:#EC348E;fill-opacity:1" d="M-4.5,-22.85Q-3.85 -23.25 -4.35 -25.05L-2.75 -23.4L-4.5 -22.85" />
<path style="fill:#BB7018;fill-opacity:1" d="M-2.75,-23.4Q-1.6 -22.65 -2.3 -21.1L-2.3 -21.15Q-2.3 -21.9 -3.65 -21.9L-3.8 -21.9L-2.75 -23.4" />
<path style="fill:#FFE638;fill-opacity:1" d="M-4.95,-21.45Q-4.55 -21.85 -3.8 -21.9L-3.65 -21.9Q-2.3 -21.9 -2.3 -21.15L-2.3 -21.1Q-2.3 -20.7 -2.75 -20.4Q-3.35 -19.9 -4.3 -19.9Q-4.75 -19.9 -5 -20.15L-5.25 -20.7L-5.1 -21.2L-4.95 -21.45" />
<path style="fill:#FF7070;fill-opacity:1" d="M-7.45,-22.7Q-6.85 -24.05 -5.7 -24.55L-5.85 -22.5L-7.45 -22.7" />
<path style="fill:#BB1D1D;fill-opacity:1" d="M-5.3,-21.15L-5.85 -21.15Q-6.95 -21.55 -7.8 -22.75L-7.45 -22.7L-5.85 -22.5L-5.3 -21.15" />
<path style="fill:#C274FF;fill-opacity:1" d="M-7.05,-36.15L-7.65 -36.25L-7.75 -37.25L-7.7 -37.3L-6.7 -37.3Q-7.5 -36.7 -7.05 -36.15" />
<path style="fill:#6D1179;fill-opacity:1" d="M-5.75,-34.2L-5.5 -35.85L-5.55 -35.85L-4.5 -36.6L-4.15 -36.15Q-5.1 -35.15 -4.9 -34.1L-5.8 -34.15L-5.8 -34.2L-5.75 -34.2" />
<path style="fill:#BF00D7;fill-opacity:1" d="M-4.15,-36.15L-3.8 -35.4L-3.5 -34.15L-3.65 -34.1L-4.9 -34.1Q-5.1 -35.15 -4.15 -36.15" />
<path style="fill:#BB7018;fill-opacity:1" d="M-6.05,-33.1Q-4.75 -33.35 -3.65 -34.1L-3.5 -34.15L-3.8 -35.4L-2.7 -34.8Q-2.15 -34.3 -2.35 -33.65Q-2.55 -33.05 -3.5 -32.8L-5.45 -32.75Q-7.35 -33.1 -8.15 -33.8Q-7.65 -33.4 -6.1 -33.15L-6.05 -33.1" />
<path style="fill:#810FD9;fill-opacity:1" d="M-5.55,-35.85L-6.1 -35.95L-7.05 -36.15Q-7.5 -36.7 -6.7 -37.3Q-5.3 -37.2 -4.5 -36.7L-4.5 -36.6L-5.55 -35.85" />
<path style="fill:#4C0D54;fill-opacity:1" d="M-6.05,-33.1L-5.85 -34L-5.8 -34.15L-4.9 -34.1L-3.65 -34.1Q-4.75 -33.35 -6.05 -33.1" />
<path style="fill:#FFAAF9;fill-opacity:1" d="M-7.65,-34.55L-8.1 -34.65L-8.05 -34.7L-7.65 -36.2L-7.65 -36.25L-7.05 -36.15L-6.1 -35.95Q-7.05 -35.6 -7.65 -34.55" />
<path style="fill:#DE2EFF;fill-opacity:1" d="M-6.1,-35.95L-5.55 -35.85L-5.5 -35.85L-5.75 -34.2L-5.8 -34.2L-7.65 -34.55Q-7.05 -35.6 -6.1 -35.95" />
<path style="fill:#5300D0;fill-opacity:1" d="M-8.15,-33.8L-8.6 -34L-8.1 -34.65L-7.65 -34.55L-5.8 -34.2L-5.8 -34.15L-5.85 -34L-8.15 -33.8" />
<path style="fill:#9100A3;fill-opacity:1" d="M-8.1,-34.65L-8.6 -34Q-9.05 -34.7 -8.9 -35.75L-7.75 -37.25L-7.65 -36.25L-7.65 -36.2L-8.05 -34.7L-8.1 -34.65" />
<path style="fill:#9943FF;fill-opacity:1" d="M-5.85,-34L-6.05 -33.1L-6.1 -33.15Q-7.65 -33.4 -8.15 -33.8L-5.85 -34" />
<path style="fill:#18D03B;fill-opacity:1" d="M0.15,-26.55Q-0.35 -25.85 -1.25 -25.5L-1.8 -25.35Q-2.45 -25.9 -2.3 -26.6Q-2.15 -27.25 -1.5 -27.4L-0.95 -27.4L-0.3 -27.3L0.35 -26.85L0.15 -26.55M-1.9,-26.6L-1.85 -26.35Q-1.7 -26.15 -1.4 -26.15Q-0.7 -26.15 -0.7 -26.55Q-0.7 -26.95 -1.3 -26.95Q-1.9 -26.95 -1.9 -26.6" />
<path style="fill:#00911C;fill-opacity:1" d="M0.35,-26.85L0.6 -26Q0.45 -25.15 -0.55 -25L-1.8 -25.35L-1.25 -25.5Q-0.35 -25.85 0.15 -26.55L0.35 -26.85" />
<path style="fill:#BB7018;fill-opacity:1" d="M0.6,-26L0.6 -25.9Q1.85 -25.3 -0.55 -25Q0.45 -25.15 0.6 -26" />
<path style="fill:#D9FFE9;fill-opacity:1" d="M-1.3,-26.95Q-0.7 -26.95 -0.7 -26.55Q-0.7 -26.15 -1.4 -26.15Q-1.7 -26.15 -1.85 -26.35L-1.9 -26.6Q-1.9 -26.95 -1.3 -26.95" />
<path style="fill:#9100A3;fill-opacity:1" d="M15.25,-29.6L14.1 -28.95L14.05 -28.95L13.4 -28.8Q13.55 -29.45 14.25 -30L15.75 -30.2L15.8 -30.2L15.25 -29.6" />
<path style="fill:#5300D0;fill-opacity:1" d="M13.55,-28.45L13.4 -28.8L14.05 -28.95L14.25 -28.6L15.15 -27.35L15.1 -27.3L14.95 -27.25L13.55 -28.45" />
<path style="fill:#FFAAF9;fill-opacity:1" d="M15.5,-29.2L15.95 -28.55L14.25 -28.6L14.05 -28.95L14.1 -28.95L15.25 -29.6L15.5 -29.2" />
<path style="fill:#4C0D54;fill-opacity:1" d="M15.6,-26.8L16.35 -26.05Q15.2 -26.25 14.35 -26.9L14.95 -27.25L15.1 -27.3L15.6 -26.8" />
<path style="fill:#6D1179;fill-opacity:1" d="M16.25,-28.15L17.25 -27.95L17.2 -27.55Q16.05 -27.5 15.6 -26.8L15.1 -27.3L15.15 -27.35L16.25 -28.15" />
<path style="fill:#9943FF;fill-opacity:1" d="M13.55,-28.45L14.95 -27.25L14.35 -26.9Q13.6 -27.95 13.55 -28.45" />
<path style="fill:#DE2EFF;fill-opacity:1" d="M15.15,-27.35L14.25 -28.6L15.95 -28.55L16.25 -28.15L15.15 -27.35" />
<path style="fill:#9C6804;fill-opacity:1" d="M16.95,-26.9Q17.1 -24.95 16.6 -24.95Q14.7 -25.5 14.1 -26.55Q13.45 -27.55 13.55 -28.45Q13.6 -27.95 14.35 -26.9Q15.2 -26.25 16.35 -26.05L16.4 -26L16.95 -26.9" />
<path style="fill:#C274FF;fill-opacity:1" d="M15.5,-29.2L15.25 -29.6L15.8 -30.2L16.4 -29.65Q15.6 -29.75 15.5 -29.2" />
<path style="fill:#810FD9;fill-opacity:1" d="M16.4,-29.65L17.3 -28.05L17.25 -27.95L16.25 -28.15L15.95 -28.55L15.5 -29.2Q15.6 -29.75 16.4 -29.65" />
<path style="fill:#BF00D7;fill-opacity:1" d="M17.2,-27.55L16.95 -26.9L16.4 -26L16.35 -26.05L15.6 -26.8Q16.05 -27.5 17.2 -27.55" />
<path style="fill:#E2427F;fill-opacity:1" d="M-13.35,-32.45L-13.15 -32.4L-13.6 -32.25L-12.9 -32.25Q-12.05 -31.7 -13.35 -31Q-13.95 -31.5 -13.95 -31.1L-13.75 -30.8L-14.25 -30.6L-14.85 -30.35Q-15.1 -30.85 -15.25 -30.35L-15.2 -30.25Q-16.15 -29.95 -16 -30.4L-14.6 -31.3Q-13.8 -31.95 -13.95 -32.2L-14.15 -32.3L-13.35 -32.45" />
<path style="fill:#FFECEF;fill-opacity:1" d="M-16.3,-30.45L-16 -31.3Q-15.7 -31.8 -14.9 -32.1L-14.15 -32.3L-13.95 -32.2Q-13.8 -31.95 -14.6 -31.3L-16 -30.4L-16.3 -30.45" />
<path style="fill:#C6243E;fill-opacity:1" d="M-14.8,-28.8L-16.4 -29.75L-16.65 -30.6Q-15.9 -32.4 -12.8 -32.9L-12.5 -32.6L-13.15 -32.4L-13.35 -32.45L-14.15 -32.3L-14.9 -32.1Q-15.7 -31.8 -16 -31.3L-16.3 -30.45L-16 -30.4Q-16.15 -29.95 -15.2 -30.25L-14.8 -28.8M-14.85,-30.35L-14.25 -30.6L-13.75 -30.8L-13.15 -29.95Q-13.85 -29.75 -14.35 -28.75L-14.85 -30.35M-13.35,-31Q-12.05 -31.7 -12.9 -32.25L-12.35 -32.25L-12.35 -30.8L-12.75 -30.35L-13.35 -31M-11.6,-28.4L-11.6 -30.65L-10.45 -31.6L-10.05 -29.95Q-11.45 -29.5 -11.6 -28.4" />
<path style="fill:#FFC4CD;fill-opacity:1" d="M-15.2,-30.25L-15.25 -30.35Q-15.1 -30.85 -14.85 -30.35L-14.35 -28.75L-14.15 -28.05L-16.15 -28.95L-16.4 -29.75L-14.8 -28.8L-15.2 -30.25M-12.75,-30.35L-12.25 -29.85L-12.75 -29.4L-13.15 -29.95L-13.75 -30.8L-13.95 -31.1Q-13.95 -31.5 -13.35 -31L-12.75 -30.35M-12.35,-30.8L-12.35 -32.25L-12.9 -32.25L-13.6 -32.25L-13.15 -32.4L-12.5 -32.6L-12.8 -32.9L-12.5 -32.95L-11.45 -32.25L-11.6 -30.65L-12.35 -30.8" />
<path style="fill:#9F172D;fill-opacity:1" d="M-11.6,-30.65L-11.45 -32.25L-10.45 -31.6L-11.6 -30.65" />
<path style="fill:#800F21;fill-opacity:1" d="M-13.65,-26.9Q-14.75 -27.75 -15.9 -27.95L-16.15 -28.95L-14.15 -28.05L-12.75 -29.4L-12.25 -29.85L-11.6 -30.65L-11.6 -28.4Q-13.75 -28.15 -13.65 -26.9" />
<path style="fill:#F04687;fill-opacity:1" d="M-12.35,-30.8L-11.6 -30.65L-12.25 -29.85L-12.75 -30.35L-12.35 -30.8M-14.35,-28.75Q-13.85 -29.75 -13.15 -29.95L-12.75 -29.4L-14.15 -28.05L-14.35 -28.75" />
<path style="fill:#FCC81E;fill-opacity:1" d="M-11.6,-28.4Q-11.45 -29.5 -10.05 -29.95Q-9.85 -28.4 -11.6 -27.4Q-11.8 -27.25 -11.95 -27.2L-12.15 -27.05L-13.65 -26.9Q-13.75 -28.15 -11.6 -28.4" />
<path style="fill:#BB7018;fill-opacity:1" d="M-11.6,-27.4Q-9.85 -28.4 -10.05 -29.95Q-7.5 -30.4 -9.35 -28.3Q-10.5 -26.95 -11.95 -27.2Q-11.8 -27.25 -11.6 -27.4" />
<path style="fill:#29E2C9;fill-opacity:1" d="M4.2,-24.85L4.4 -24.35Q4.4 -23.3 3.45 -23.3Q2.3 -23.3 2.3 -24.2Q2.3 -25.25 3.3 -25.25Q3.8 -25.25 4.2 -24.85M7.75,-22.2Q7.4 -22.25 7.4 -21.75L7.4 -21.55L7.7 -21.35Q8.1 -21.35 8.1 -21.8L7.75 -22.2M5.2,-22.95L5.55 -22.75Q5.9 -22.75 5.9 -23.2Q5.9 -23.55 5.5 -23.55Q5.15 -23.55 5.15 -23.15L5.2 -22.95M7.65,-20.6L7.35 -20.6Q6.1 -20.6 6.1 -21.95L6.35 -22.6Q6.7 -23.05 7.4 -23.05Q8.4 -23.05 8.5 -21.8L8.3 -21.1L7.95 -20.7L7.65 -20.6M4.25,-22.35L4.1 -22.8L4.1 -22.85L4.25 -23.6Q4.5 -24.25 5.05 -24.25Q5.7 -24.25 6.1 -23.65L6.35 -22.95L6.15 -22.4Q5.8 -22 5.05 -22L4.65 -22.05Q4.4 -22.15 4.25 -22.35M4.1,-24.1L3.75 -24.5Q3.35 -24.5 3.35 -24.15Q3.35 -23.8 3.9 -23.8Q4.1 -23.8 4.1 -24.1" />
<path style="fill:#D4FFF9;fill-opacity:1" d="M8.1,-21.8Q8.1 -21.35 7.7 -21.35L7.4 -21.55L7.4 -21.75Q7.4 -22.25 7.75 -22.2L8.1 -21.8M5.15,-23.15Q5.15 -23.55 5.5 -23.55Q5.9 -23.55 5.9 -23.2Q5.9 -22.75 5.55 -22.75L5.2 -22.95L5.15 -23.15M8.35,-19.5Q8.4 -19.7 8.8 -19.7Q9.15 -19.7 9.15 -19.3Q9.15 -18.95 8.7 -18.95Q8.35 -18.95 8.35 -19.3L8.35 -19.5M3.9,-23.8Q3.35 -23.8 3.35 -24.15Q3.35 -24.5 3.75 -24.5L4.1 -24.1Q4.1 -23.8 3.9 -23.8M3.85,-21Q3.55 -21 3.45 -21.2L3.45 -21.5Q3.45 -22 3.9 -22L4.35 -21.55L4.25 -21.2Q4.05 -21 3.85 -21M3,-18.8Q3 -18.4 2.6 -18.4Q2.15 -18.4 2.15 -18.95Q2.15 -19.3 2.55 -19.3Q3 -19.3 3 -18.8M4.05,-15.7L4.5 -15.35L4.35 -15Q4.25 -14.85 4.1 -14.85L3.75 -15.05L3.75 -15.35L3.75 -15.55L4.05 -15.7M2.05,-16.65Q2.5 -16.75 2.5 -16.25Q2.5 -15.85 2.15 -15.85Q1.85 -15.85 1.75 -16.05L1.7 -16.25Q1.7 -16.6 2.05 -16.65M8.25,-17.35Q8.25 -16.95 7.85 -16.95Q7.55 -16.95 7.5 -17.15L7.45 -17.4Q7.45 -17.8 7.9 -17.8Q8.25 -17.8 8.25 -17.35M6.75,-15.65Q6.75 -15.2 6.3 -15.2Q5.95 -15.2 5.95 -15.65Q5.95 -16.1 6.35 -16.05L6.75 -15.65" />
<path style="fill:#01AFCB;fill-opacity:1" d="M7.55,-18.55Q7.2 -18.85 7.2 -19.5Q7.2 -20.3 7.65 -20.6L7.95 -20.7L8.35 -20.8Q9.5 -20.8 9.5 -19.5L9.4 -18.8Q9.2 -18.35 8.45 -18.35L8.15 -18.35L7.55 -18.55M2.55,-20.55L2.3 -20.9L2.2 -21.55Q2.2 -23 3.45 -23L4.1 -22.8L4.25 -22.35Q4.4 -22.15 4.65 -22.05L4.75 -21.45L4.55 -20.75Q4.2 -20.3 3.45 -20.3L2.85 -20.4L2.55 -20.55M8.35,-19.3Q8.35 -18.95 8.7 -18.95Q9.15 -18.95 9.15 -19.3Q9.15 -19.7 8.8 -19.7Q8.4 -19.7 8.35 -19.5L8.35 -19.3M4.25,-21.2L4.35 -21.55L3.9 -22Q3.45 -22 3.45 -21.5L3.45 -21.2Q3.55 -21 3.85 -21Q4.05 -21 4.25 -21.2" />
<path style="fill:#118B9F;fill-opacity:1" d="M8.15,-18.35L8.7 -17.2Q8.7 -16.15 7.55 -16.15L6.9 -16.3L6.5 -16.55L6.3 -16.8L6.15 -17.1Q6.15 -17.5 6.45 -17.95Q6.8 -18.55 7.4 -18.55L7.55 -18.55L8.15 -18.35M2.85,-20.4L3.2 -19.95L3.5 -19.1Q3.5 -18.55 3.1 -18.1Q2.7 -17.65 2.2 -17.65Q1.4 -17.65 1.1 -18.25Q0.85 -18.65 0.85 -19L1.1 -19.9Q1.4 -20.6 2.05 -20.6L2.55 -20.55L2.85 -20.4M2.55,-19.3Q2.15 -19.3 2.15 -18.95Q2.15 -18.4 2.6 -18.4Q3 -18.4 3 -18.8Q3 -19.3 2.55 -19.3M7.9,-17.8Q7.45 -17.8 7.45 -17.4L7.5 -17.15Q7.55 -16.95 7.85 -16.95Q8.25 -16.95 8.25 -17.35Q8.25 -17.8 7.9 -17.8" />
<path style="fill:#00ACC9;fill-opacity:1" d="M4.65,-14.95Q4.45 -14.45 3.75 -14.45Q3 -14.45 2.7 -14.9L2.55 -15.5L2.55 -15.65L2.7 -16.1L2.85 -16.25L3.5 -16.55Q4.2 -16.55 4.5 -16.1L4.65 -15.85L4.7 -15.5L4.65 -14.95M3.75,-15.55L3.75 -15.35L3.75 -15.05L4.1 -14.85Q4.25 -14.85 4.35 -15L4.5 -15.35L4.05 -15.7L3.75 -15.55" />
<path style="fill:#0FD48D;fill-opacity:1" d="M6.5,-16.55L6.9 -16.3L7.05 -15.5L6.8 -14.75Q6.5 -14.3 5.85 -14.3Q5.2 -14.3 4.85 -14.7L4.65 -14.95L4.7 -15.5L4.65 -15.85L4.75 -16.15Q5.15 -16.9 6 -16.9L6.3 -16.8L6.5 -16.55M2.7,-16.1L2.55 -15.65Q2.2 -15.2 1.7 -15.2Q0.5 -15.2 0.5 -16.35Q0.5 -17.8 1.7 -17.6Q2.85 -17.4 2.85 -16.35L2.85 -16.25L2.7 -16.1M1.7,-16.25L1.75 -16.05Q1.85 -15.85 2.15 -15.85Q2.5 -15.85 2.5 -16.25Q2.5 -16.75 2.05 -16.65Q1.7 -16.6 1.7 -16.25M6.35,-16.05Q5.95 -16.1 5.95 -15.65Q5.95 -15.2 6.3 -15.2Q6.75 -15.2 6.75 -15.65L6.35 -16.05" />
<path style="fill:#FFFBEE;fill-opacity:1" d="M1.7,-33.75L1.5 -33.4L1.15 -33.25Q0.5 -33.25 0.15 -33.6L-0.1 -34.2Q-0.1 -35.15 0.8 -35Q1.7 -34.8 1.7 -33.75M8,-27.45Q7.05 -27.45 7.05 -28.4Q7.05 -29.5 8.1 -29.35Q9.05 -29.2 9.05 -28.35Q9.05 -27.45 8 -27.45M0,-36.8Q0 -35.6 -1.85 -35.6Q-3 -35.6 -3 -36.55Q-3 -37.55 -1.7 -37.7L-1.7 -37.9Q-1.7 -38.9 -0.2 -38.65Q1.35 -38.45 1.35 -37.6Q1.35 -36.85 0 -36.8M10.2,-24.1L9.7 -23.95Q8.8 -23.95 8.8 -24.6Q8.8 -25.45 9.7 -25.5Q10.55 -25.55 10.55 -24.7L10.2 -24.1M6.5,-23.2L6.3 -23.75Q6.3 -24.6 7.35 -24.5Q8.4 -24.4 8.4 -23.5Q8.4 -23.15 8 -22.95L7.4 -22.75Q6.75 -22.75 6.5 -23.2M-11.55,-29.9L-11.65 -30.4Q-11.65 -31.15 -10.7 -31.25Q-9.8 -31.4 -9.8 -30.6L-10.1 -29.9Q-10.4 -29.4 -10.75 -29.4Q-11.35 -29.4 -11.55 -29.9M-5.65,-31.5L-5.65 -31.35Q-5.35 -32.05 -3.9 -31.5Q-2.15 -30.8 -2.15 -29.9L-2.25 -29.25Q-2.5 -28.85 -3.25 -28.85Q-4.5 -28.85 -5.2 -29.8L-5.75 -30.9L-5.7 -31L-6 -30.7Q-6.45 -30.35 -7.1 -30.35Q-8.15 -30.35 -8.5 -30.85L-8.65 -31.45Q-8.65 -32.5 -7.1 -32.6Q-5.65 -32.65 -5.65 -31.5M-7.7,-25.6L-7.85 -26.1Q-7.85 -27.7 -6.25 -27.6Q-4.65 -27.5 -4.65 -26.25Q-4.65 -25.65 -4.95 -25.45Q-5.35 -25.15 -6.6 -25.15Q-7.4 -25.15 -7.7 -25.6" />
</g>
</svg>
